<svg fill="none" xmlns="http://www.w3.org/2000/svg" viewBox="0 0 815 260" class="footer_footerSvgMobile__1jvBV md:hidden"><path d="M148.694 155.889c38.202-33.715 73.574-70.316 113.756-101.833 21.986-17.245 45.491-31.91 68.087-48.231 9.474-6.844 5.048-5.238 2.871-2.315-22.49 30.202-41.321 61.821-66.882 89.983-40.768 44.915-87.893 82.766-131.913 124.236-3.157 2.974-7.563 8.837 1.204 1.573 16.389-13.576 31.042-30.132 45.669-45.454 44.183-46.281 82.12-96.98 123.761-145.343 2.47-2.868 9.525-11.064 6.022-9.627-11.638 4.77-23.06 16.273-32.145 24.07-30.858 26.482-61.548 53.233-92.172 79.984-41.482 36.235-85.335 72.899-118.295 117.477-14.6 19.746-3.309 17.923 15.748 9.906 48.393-20.359 93.612-48.299 137.471-76.837 27.879-18.141 57.359-36.86 84.112-56.841 8.459-6.318-21.281 1.16-31.403 4.166-37.652 11.18-73.852 25.97-108.847 43.788-17.711 9.018-39.197 19.57-54.284 33.234-6.728 6.093.993 6.722 6.485 7.313 10.997 1.184 22.107.452 33.07 2.13 12.996 1.989 25.194 7.104 37.888 10.275 29.213 7.299 58.992 10.274 89.116 9.721 36.59-.673 72.997-5.441 107.271-18.793 8.608-3.353 29.827-11.542 22.14-16.663-14.741-9.821-52.166 22.624-15.933 28.513 12.716 2.066 25.789 2.362 38.629 1.296 47.789-3.97 107.784-17.839 152.663-30.92C663.846 167.069 738.136 131.789 814 95.9" stroke="#EFEFEF" stroke-width=".5" stroke-linecap="round"/><g opacity=".97"><path d="M296.841 234.906c38.196-13.526 58.194-55.456 44.668-93.651-13.526-38.196-55.455-58.195-93.651-44.67-38.196 13.527-58.195 55.456-44.669 93.652 13.526 38.196 55.456 58.195 93.652 44.669Z" fill="#FF4D00"/><path d="M293.187 224.377c32.143-11.294 48.827-46.724 37.265-79.135-11.563-32.412-46.993-49.53-79.136-38.237-32.143 11.294-48.827 46.724-37.264 79.135 11.562 32.412 46.992 49.531 79.135 38.237Z" stroke="#121212" stroke-width="1.916" stroke-miterlimit="10"/><path d="M293.157 224.307c21.155-7.434 28.945-39.706 17.399-72.08-11.546-32.373-38.056-52.59-59.212-45.156-21.155 7.435-28.945 39.706-17.399 72.08 11.546 32.374 38.056 52.591 59.212 45.156Z" stroke="#121212" stroke-width="1.916" stroke-miterlimit="10"/><path d="M293.101 224.225c10.184-3.584 9.107-32.696-2.407-65.024-11.514-32.329-29.104-55.631-39.289-52.047-10.184 3.584-9.107 32.696 2.407 65.025 11.514 32.328 29.104 55.63 39.289 52.046Z" stroke="#121212" stroke-width="1.916" stroke-miterlimit="10"/><path d="m213.663 186.015 116.88-41.39M210.291 163.141l108.502-38.424M217.545 136.532l78.843-27.92M247.587 222.557l79.614-28.194M225.411 206.341l108.794-38.527" stroke="#121212" stroke-width="1.916" stroke-miterlimit="10" stroke-linecap="round"/><path d="M315.317 150.759c-35.18 12.213-40.302 22.903-27.903 58.25-12.408-35.373-23.099-40.583-58.252-28.379 35.18-12.213 40.302-22.903 27.903-58.249 12.399 35.346 23.089 40.555 58.252 28.378Z" fill="#121212"/><path d="m251.544 107.255 41.381 116.854" stroke="#121212" stroke-width="1.916" stroke-miterlimit="10"/></g><g opacity=".97" filter="url(#a)"><path fill-rule="evenodd" clip-rule="evenodd" d="M107.611 221.237c-10.15 1.693-21.23 1.838-32.649.145-41.4-6.137-71.553-34.107-67.348-62.474 4.205-28.367 41.176-46.388 82.576-40.251 11.419 1.693 21.983 5.047 31.206 9.612 10.149-1.693 21.231-1.838 32.649-.146 41.4 6.137 71.553 34.108 67.348 62.475-4.205 28.367-41.176 46.388-82.576 40.251-11.419-1.693-21.983-5.047-31.206-9.612Z" fill="#FF4D00"/><path d="M144.367 178.959c-3.381 22.346-34.345 36.344-69.14 31.29-34.795-5.053-60.282-27.248-56.901-49.594 3.381-22.346 34.345-36.343 69.14-31.29" fill="#FF4D00"/><path d="M144.367 178.959c-3.381 22.346-34.345 36.344-69.14 31.29-34.795-5.053-60.282-27.248-56.901-49.594 3.381-22.346 34.345-36.343 69.14-31.29" stroke="#121212" stroke-width="1.916" stroke-miterlimit="10" stroke-linecap="round" stroke-linejoin="round"/><path d="M103.526 173.031c-3.369 22.275-16.015 38.872-28.25 37.094-12.234-1.778-19.425-21.258-16.057-43.533 3.369-22.274 16.015-38.872 28.25-37.094" fill="#FF4D00"/><path d="M103.526 173.031c-3.369 22.275-16.015 38.872-28.25 37.094-12.234-1.778-19.425-21.258-16.057-43.533 3.369-22.274 16.015-38.872 28.25-37.094" stroke="#121212" stroke-width="1.916" stroke-miterlimit="10" stroke-linecap="round" stroke-linejoin="round"/><path d="M125.993 176.287c-3.379 22.317-26.09 37.491-50.765 33.91-24.646-3.577-41.913-24.554-38.533-46.871 3.379-22.317 26.09-37.491 50.765-33.91" fill="#FF4D00"/><path d="M125.993 176.287c-3.379 22.317-26.09 37.491-50.765 33.91-24.646-3.577-41.913-24.554-38.533-46.871 3.379-22.317 26.09-37.491 50.765-33.91M18.195 160.447l126.325 18.727M87.339 129.583l-11.927 80.458" stroke="#121212" stroke-width="1.916" stroke-miterlimit="10" stroke-linecap="round" stroke-linejoin="round"/><path d="M85.177 170.6c3.395-22.364 34.359-36.39 69.14-31.354 34.781 5.036 60.247 27.231 56.852 49.595-3.395 22.363-34.359 36.389-69.141 31.353" fill="#FF4D00"/><path d="M85.177 170.6c3.395-22.364 34.359-36.39 69.14-31.354 34.781 5.036 60.247 27.231 56.852 49.595-3.395 22.363-34.359 36.389-69.141 31.353" stroke="#121212" stroke-width="1.916" stroke-miterlimit="10" stroke-linecap="round" stroke-linejoin="round"/><path d="M126.041 176.509c3.38-22.282 16.026-38.891 28.249-37.12 12.223 1.771 19.396 21.252 16.016 43.534-3.379 22.281-16.026 38.89-28.249 37.119" fill="#FF4D00"/><path d="M126.041 176.509c3.38-22.282 16.026-38.891 28.249-37.12 12.223 1.771 19.396 21.252 16.016 43.534-3.379 22.281-16.026 38.89-28.249 37.119" stroke="#121212" stroke-width="1.916" stroke-miterlimit="10" stroke-linecap="round" stroke-linejoin="round"/><path d="M103.549 173.26c3.393-22.331 26.104-37.527 50.765-33.959 24.661 3.568 41.877 24.54 38.485 46.871-3.393 22.331-26.104 37.527-50.765 33.959" fill="#FF4D00"/><path d="M103.549 173.26c3.393-22.331 26.104-37.527 50.765-33.959 24.661 3.568 41.877 24.54 38.485 46.871-3.393 22.331-26.104 37.527-50.765 33.959M211.35 189.082l-126.353-18.73M142.209 219.946l11.927-80.459" stroke="#121212" stroke-width="1.916" stroke-miterlimit="10" stroke-linecap="round" stroke-linejoin="round"/><path d="M142.038 219.943c-34.8-5.055-63.906-27.781-60.525-50.131l66.644 9.68-6.119 40.451c-24.673-3.584-41.959-24.593-38.578-46.944Z" fill="#FF4D00"/><path d="M142.038 219.943c-34.8-5.055-63.906-27.781-60.525-50.131l66.644 9.68-6.119 40.451Zm0 0c-24.673-3.584-41.959-24.593-38.578-46.944" stroke="#121212" stroke-width="1.916" stroke-miterlimit="10" stroke-linecap="round" stroke-linejoin="round"/><path d="M142.063 219.942c-12.234-1.778-19.424-21.258-16.055-43.533Z" fill="#FF4D00"/><path d="M142.063 219.942c-12.234-1.778-19.424-21.258-16.055-43.533" stroke="#121212" stroke-width="1.916" stroke-miterlimit="10" stroke-linecap="round" stroke-linejoin="round"/><path d="M87.457 129.584c34.817 5.08 63.956 27.808 60.594 50.133l-66.679-9.729 6.085-40.404c24.685 3.602 41.998 24.604 38.636 46.929Z" fill="#FF4D00"/><path d="M87.457 129.584c34.817 5.08 63.956 27.808 60.594 50.133l-66.679-9.729 6.085-40.404Zm0 0c24.685 3.602 41.998 24.604 38.636 46.929" stroke="#121212" stroke-width="1.916" stroke-miterlimit="10" stroke-linecap="round" stroke-linejoin="round"/><path d="M87.441 129.584c12.25 1.788 19.468 21.269 16.116 43.534Z" fill="#FF4D00"/><path d="M87.441 129.584c12.25 1.788 19.468 21.269 16.116 43.534M29.637 141.574 205.882 167.7M23.669 181.832l176.244 26.126" stroke="#121212" stroke-width="1.916" stroke-miterlimit="10" stroke-linecap="round" stroke-linejoin="round"/></g><defs><filter id="a" x="4.981" y="117.458" width="219.045" height="119.074" filterUnits="userSpaceOnUse" color-interpolation-filters="sRGB"><feFlood flood-opacity="0" result="BackgroundImageFix"/><feColorMatrix in="SourceAlpha" values="0 0 0 0 0 0 0 0 0 0 0 0 0 0 0 0 0 0 127 0" result="hardAlpha"/><feOffset dy="2.242"/><feComposite in2="hardAlpha" operator="out"/><feColorMatrix values="0 0 0 0 0 0 0 0 0 0 0 0 0 0 0 0 0 0 0.2 0"/><feBlend in2="BackgroundImageFix" result="effect1_dropShadow_507_102"/><feBlend in="SourceGraphic" in2="effect1_dropShadow_507_102" result="shape"/></filter></defs></svg>