<svg fill="none" xmlns="http://www.w3.org/2000/svg" viewBox="0 0 1904 684" class="footer_footerSvgDesktop__RitPu hidden md:block"><g opacity=".97"><path d="M529.699 290.53c68.16-24.137 103.847-98.958 79.71-167.117-24.137-68.16-98.958-103.846-167.117-79.71-68.16 24.137-103.847 98.958-79.71 167.117 24.137 68.159 98.958 103.847 167.117 79.71Z" fill="#FF4D00"/><path d="M523.18 271.745c57.358-20.153 87.13-83.377 66.498-141.214-20.633-57.837-83.856-88.385-141.214-68.232-57.358 20.153-87.13 83.377-66.497 141.213 20.632 57.837 83.856 88.386 141.213 68.233Z" stroke="#121212" stroke-width="3" stroke-miterlimit="10"/><path d="M523.127 271.621c37.751-13.267 51.652-70.854 31.048-128.624-20.603-57.77-67.91-93.846-105.661-80.58-37.751 13.268-51.652 70.855-31.048 128.625 20.603 57.769 67.91 93.846 105.661 80.579Z" stroke="#121212" stroke-width="3" stroke-miterlimit="10"/><path d="M523.026 271.474c18.174-6.395 16.251-58.345-4.296-116.034-20.546-57.688-51.935-99.27-70.109-92.874-18.173 6.395-16.25 58.345 4.296 116.033 20.546 57.689 51.935 99.271 70.109 92.875Z" stroke="#121212" stroke-width="3" stroke-miterlimit="10"/><path d="m381.272 203.287 208.569-73.859M375.256 162.47l193.617-68.565M388.201 114.989l140.691-49.822M441.81 268.496l142.068-50.311M402.236 239.561l194.14-68.751" stroke="#121212" stroke-width="3" stroke-miterlimit="10" stroke-linecap="round"/><path d="M562.671 140.373c-62.777 21.794-71.917 40.87-49.792 103.944-22.142-63.122-41.218-72.418-103.947-50.641 62.776-21.794 71.916-40.87 49.791-103.944 22.125 63.074 41.202 72.371 103.948 50.641Z" fill="#121212"/><path d="m448.871 62.742 73.843 208.521" stroke="#121212" stroke-width="3" stroke-miterlimit="10"/></g><g opacity=".97" filter="url(#a)"><path fill-rule="evenodd" clip-rule="evenodd" d="M192.027 266.064c-18.112 3.021-37.885 3.279-58.26.259-73.878-10.951-127.684-60.864-120.18-111.484C21.09 104.22 87.063 72.062 160.94 83.013c20.377 3.021 39.227 9.006 55.685 17.152 18.112-3.02 37.886-3.279 58.261-.259 73.877 10.952 127.684 60.864 120.18 111.484-7.504 50.619-73.476 82.777-147.353 71.826-20.378-3.021-39.228-9.006-55.686-17.152Z" fill="#FF4D00"/><path d="M257.618 190.62c-6.034 39.876-61.288 64.853-123.378 55.836-62.09-9.017-107.572-48.625-101.538-88.5 6.033-39.875 61.288-64.852 123.378-55.835" fill="#FF4D00"/><path d="M257.618 190.62c-6.034 39.876-61.288 64.853-123.378 55.836-62.09-9.017-107.572-48.625-101.538-88.5 6.033-39.875 61.288-64.852 123.378-55.835" stroke="#121212" stroke-width="3" stroke-miterlimit="10" stroke-linecap="round" stroke-linejoin="round"/><path d="M184.737 180.042c-6.011 39.748-28.579 69.366-50.41 66.193-21.832-3.172-34.664-37.934-28.653-77.682 6.01-39.749 28.578-69.366 50.409-66.194" fill="#FF4D00"/><path d="M184.737 180.042c-6.011 39.748-28.579 69.366-50.41 66.193-21.832-3.172-34.664-37.934-28.653-77.682 6.01-39.749 28.578-69.366 50.409-66.194" stroke="#121212" stroke-width="3" stroke-miterlimit="10" stroke-linecap="round" stroke-linejoin="round"/><path d="M224.831 185.851c-6.031 39.824-46.558 66.902-90.589 60.512-43.98-6.383-74.791-43.815-68.761-83.639 6.03-39.825 46.558-66.902 90.588-60.512" fill="#FF4D00"/><path d="M224.831 185.851c-6.031 39.824-46.558 66.902-90.589 60.512-43.98-6.383-74.791-43.815-68.761-83.639 6.03-39.825 46.558-66.902 90.588-60.512M32.469 157.586l225.421 33.416M155.852 102.508l-21.283 143.574" stroke="#121212" stroke-width="3" stroke-miterlimit="10" stroke-linecap="round" stroke-linejoin="round"/><path d="M151.994 175.699c6.058-39.906 61.313-64.934 123.378-55.949 62.065 8.986 107.508 48.593 101.449 88.5-6.058 39.907-61.312 64.935-123.378 55.949" fill="#FF4D00"/><path d="M151.994 175.699c6.058-39.906 61.313-64.934 123.378-55.949 62.065 8.986 107.508 48.593 101.449 88.5-6.058 39.907-61.312 64.935-123.378 55.949" stroke="#121212" stroke-width="3" stroke-miterlimit="10" stroke-linecap="round" stroke-linejoin="round"/><path d="M224.915 186.248c6.031-39.761 28.598-69.398 50.409-66.238 21.812 3.16 34.611 37.922 28.58 77.683-6.031 39.761-28.598 69.399-50.41 66.238" fill="#FF4D00"/><path d="M224.915 186.248c6.031-39.761 28.598-69.398 50.409-66.238 21.812 3.16 34.611 37.922 28.58 77.683-6.031 39.761-28.598 69.399-50.41 66.238" stroke="#121212" stroke-width="3" stroke-miterlimit="10" stroke-linecap="round" stroke-linejoin="round"/><path d="M184.779 180.449c6.054-39.848 46.582-66.965 90.589-60.598 44.006 6.367 74.728 43.791 68.673 83.639-6.054 39.848-46.581 66.965-90.588 60.598" fill="#FF4D00"/><path d="M184.779 180.449c6.054-39.848 46.582-66.965 90.589-60.598 44.006 6.367 74.728 43.791 68.673 83.639-6.054 39.848-46.581 66.965-90.588 60.598M377.146 208.684l-225.472-33.423M253.765 263.759l21.283-143.576" stroke="#121212" stroke-width="3" stroke-miterlimit="10" stroke-linecap="round" stroke-linejoin="round"/><path d="M253.46 263.751c-62.098-9.02-114.037-49.574-108.003-89.458l118.923 17.275-10.92 72.183c-44.026-6.395-74.873-43.885-68.84-83.769Z" fill="#FF4D00"/><path d="M253.46 263.751c-62.098-9.02-114.037-49.574-108.003-89.458l118.923 17.275-10.92 72.183Zm0 0c-44.026-6.395-74.873-43.885-68.84-83.769" stroke="#121212" stroke-width="3" stroke-miterlimit="10" stroke-linecap="round" stroke-linejoin="round"/><path d="M253.506 263.748c-21.831-3.171-34.662-37.933-28.65-77.682Z" fill="#FF4D00"/><path d="M253.506 263.748c-21.831-3.171-34.662-37.933-28.65-77.682" stroke="#121212" stroke-width="3" stroke-miterlimit="10" stroke-linecap="round" stroke-linejoin="round"/><path d="M156.062 102.513c62.131 9.065 114.128 49.621 108.129 89.458l-118.986-17.36 10.857-72.098c44.05 6.427 74.944 43.904 68.945 83.741Z" fill="#FF4D00"/><path d="M156.062 102.513c62.131 9.065 114.128 49.621 108.129 89.458l-118.986-17.36 10.857-72.098Zm0 0c44.05 6.427 74.944 43.904 68.945 83.741" stroke="#121212" stroke-width="3" stroke-miterlimit="10" stroke-linecap="round" stroke-linejoin="round"/><path d="M156.035 102.513c21.86 3.19 34.739 37.952 28.757 77.683Z" fill="#FF4D00"/><path d="M156.035 102.513c21.86 3.19 34.739 37.952 28.757 77.683M52.886 123.907l314.502 46.621M42.235 195.746l314.502 46.621" stroke="#121212" stroke-width="3" stroke-miterlimit="10" stroke-linecap="round" stroke-linejoin="round"/></g><path d="M579.463 483.955c75.999-67.034 146.366-139.803 226.303-202.467 43.738-34.287 90.498-63.446 135.449-95.896 18.848-13.606 10.044-10.413 5.713-4.601-44.742 60.048-82.203 122.915-133.054 178.907-81.101 89.302-174.85 164.558-262.422 247.009-6.28 5.914-15.046 17.571 2.396 3.129 32.603-26.993 61.753-59.909 90.852-90.373 87.895-92.019 163.365-192.819 246.205-288.976 4.914-5.703 18.949-21.998 11.979-19.142-23.151 9.486-45.875 32.354-63.947 47.856-61.388 52.655-122.441 105.841-183.364 159.028C573.05 490.474 485.81 563.37 420.241 652.002c-29.043 39.259-6.582 35.634 31.329 19.695 96.271-40.478 186.229-96.03 273.479-152.771 55.462-36.068 114.108-73.285 167.331-113.013 16.826-12.56-42.336 2.307-62.473 8.283-74.903 22.228-146.919 51.635-216.535 87.061-35.235 17.93-77.978 38.911-107.991 66.077-13.384 12.115 1.975 13.366 12.9 14.541 21.878 2.353 43.979.897 65.79 4.234 25.851 3.954 50.118 14.125 75.372 20.43 58.115 14.511 117.356 20.428 177.283 19.327 72.791-1.337 145.219-10.817 213.404-37.365 17.12-6.667 59.33-22.948 44.04-33.131-29.32-19.526-103.774 44.983-31.7 56.691 25.3 4.109 51.31 4.697 76.85 2.577 95.07-7.892 214.42-35.468 303.7-61.476 161.27-46.979 309.06-117.123 459.98-188.478" stroke="#EFEFEF" stroke-linecap="round"/><defs><filter id="a" x="8.888" y="80.874" width="390.876" height="212.482" filterUnits="userSpaceOnUse" color-interpolation-filters="sRGB"><feFlood flood-opacity="0" result="BackgroundImageFix"/><feColorMatrix in="SourceAlpha" values="0 0 0 0 0 0 0 0 0 0 0 0 0 0 0 0 0 0 127 0" result="hardAlpha"/><feOffset dy="4"/><feComposite in2="hardAlpha" operator="out"/><feColorMatrix values="0 0 0 0 0 0 0 0 0 0 0 0 0 0 0 0 0 0 0.2 0"/><feBlend in2="BackgroundImageFix" result="effect1_dropShadow_506_106"/><feBlend in="SourceGraphic" in2="effect1_dropShadow_506_106" result="shape"/></filter></defs></svg>