<svg width="92" height="50" fill="none" xmlns="http://www.w3.org/2000/svg" stroke="#EFEFEF"><path d="M45.8129 44.3791c22.1391 0 40.0863-8.4288 40.0863-18.8263 0-10.3974-17.9472-18.82624-40.0863-18.82624-22.1391 0-40.08634 8.42884-40.08634 18.82624 0 10.3975 17.94724 18.8263 40.08634 18.8263Z" stroke-miterlimit="10" stroke-linecap="round"/><path d="M45.8127 44.3791c7.812 0 14.1448-8.4288 14.1448-18.8263 0-10.3974-6.3328-18.82624-14.1448-18.82624-7.8119 0-14.1447 8.42884-14.1447 18.82624 0 10.3975 6.3328 18.8263 14.1447 18.8263Z" stroke-miterlimit="10" stroke-linecap="round"/><path d="M45.8115 44.3791c15.703 0 28.4327-8.4288 28.4327-18.8263 0-10.3974-12.7297-18.82624-28.4327-18.82624-15.7029 0-28.4326 8.42884-28.4326 18.82624 0 10.3975 12.7297 18.8263 28.4326 18.8263Z" stroke-miterlimit="10" stroke-linecap="round"/><path d="M70.1216 10.5781c-4.4524 3.1353-13.6723 5.2828-24.2952 5.2828-10.6372 0-19.8427-2.1475-24.2952-5.2828M21.5195 40.5289c4.4525-3.1353 13.6723-5.2828 24.2952-5.2828 10.6372 0 19.8427 2.1475 24.2952 5.2828M5.72656 25.5527H85.9135M45.8125 6.72656V44.3791" stroke-miterlimit="10" stroke-linecap="round"/><path d="M48.219 23.1785c1.2117 1.2221 2.8586 1.9744 5.0232 2.4126-2.1672.4179-3.8197 1.1555-5.0417 2.3671-1.2221 1.2118-1.9744 2.8587-2.4126 5.0232-.4179-2.1672-1.1555-3.8196-2.3671-5.0416-1.2117-1.2222-2.8586-1.9745-5.0232-2.4127 2.1672-.4179 3.8196-1.1554 5.0416-2.367 1.2222-1.2118 1.9745-2.8587 2.4127-5.0233.4179 2.1673 1.1554 3.8197 2.3671 5.0417Z" fill="#EFEFEF"/></svg>