<svg viewBox="0 0 1920 1080" xmlns="http://www.w3.org/2000/svg" style="" fill="none" color="#efefef"><path d="M1071.52 856.83c-83.885-12.657-182.46-21.267-254.624-70.641-71.891-49.187-118.548-137.197-154.373-213.737-64.077-136.899-129.227-279.881-172.249-424.876-37.767-127.288-37.627-256.202-29.239-387.376 2.788-43.587.352-91.257 11.884-133.793 8.159-30.095 22.122-58.511 28.699-89.072 2.378-11.051 2.322-25.612 18.585-16.056 31.435 18.471 59.619 52.125 84.486 77.501 62.555 63.834 123.17 128.737 173.12 203.286 168.494 251.471 258.171 555.37 317.941 849.211 35.37 173.824 66.75 355.233 42.24 532.543-6.74 48.79-19.85 93.79-31.49 141.19-4.47 18.19-.84 41.39-23.84 20.83-183.613-164.17-272.809-435.757-348.836-660.626C680.366 527.102 631.619 365.129 588.57 203.77c-9.047-33.909-42.219-126.811-11.04-165.025 21.325-26.135 76.721-25.008 101.327-21.894 155.976 19.744 309.738 93.447 447.873 162.774 295.33 148.213 605.59 325.517 855.82 543.994 57.5 50.202 29.43 46.017-35.39 51.864-235.89 21.28-470.64 46.06-705.27 78.661-28.51 3.961-79.77 12.425-113.7 13.125-4.88.101-10.1.415-14.57-1.552-8.11-3.565 17.46-3.683 26.32-3.632 167.73.955 337.4 21.227 504.61 34.265 437.58 34.118-252.1-18.884 84.85 10.053 44.93 3.859-82.05-37.676-124.61-52.561-249.15-87.145-504.97-151.031-762.453-208.554-304.303-67.983-612.063-131.555-921.308-173.312-113.814-15.369-72.161-9.295-142.569-10.781-45.627-.962 91.203-4.413 136.841-4.563C458.183 454.848 1009.8 493.395 1535.9 633.967c123.7 33.052 260.44 81.598 381.15 128.317 27.63 10.695 127.34 42.639 158.57 69.388 17.14 14.68-40.32-20.307-60.13-31.13-98.84-54.004-195.88-88.538-308.77-103.927-146.12-19.919-277.33-16.493-425.66-15.019-259.13 2.574-518.624 8.564-777.672 15.657-80.579 2.206-319.101 2.822-240.828 22.025 154.884 37.998 318.24 47.941 474.745 78.927 119.694 23.697 364.975 61.969 410.575 209.525 21.01 67.98-35.75 145.19-78.39 190.64-105.743 112.71-247.892 186.35-392.449 235.6-152.633 52-371.289 101.36-506.86-20.45-40.15-36.07-58.173-91.56-83.415-135.72" stroke="currentColor" stroke-width="2" stroke-linecap="round"/></svg>