<svg viewBox="0 0 1591 1080" xmlns="http://www.w3.org/2000/svg" fill="none" color="#efefef"><path d="M1092.66-138.551C879.127-103.285 702.465 10.027 554.73 170.043 399.745 337.912 288.331 547.164 204.81 758.306c-46.683 118.012-95.339 252.604-85.782 382.214 1.044 14.16 8.924 105.15 46.124 88.41 27.472-12.36 60.46-58.22 73.314-74.67 62.67-80.17 112.691-154.635 168.233-241.88 174.717-274.443 333.49-559.99 497.057-841.163 87.551-150.501 209.494-323.169 229.334-502.512 2.79-25.209-1.85-85.236-23.67-72.312-42.9 25.409-89.33 141.344-111.37 175.942C746.43 67.231 431.89 430.502 263.305 873.033c-6.61 17.349-20.678 68.91-8.301 55.073 19.009-21.252 47.343-72.118 55.292-85.611 150.618-255.672-3.485-1.958 194.989-336.222C642.5 275.179 786.593 50.733 946.686-165.095c1.152-1.554 86.014-116.527 8.443-55.931-102.713 80.233-187.825 203.88-265.577 304.605C499.847 329.337 316.26 581.875 165.109 853.572c-18.043 32.433-60.689 116.583-79.113 157.057-7.47 16.42-36.262 55.94-19.028 50.64 6.321-1.94 5.758-11.91 8.297-18.02 9.242-22.22 17.71-44.762 27.04-66.946 46.075-109.542 103.754-242.767 154.796-346.452C352.448 436.163 463.568 166.921 659.23 48.53c61.679-37.32 81.82-16.492 46.771 42.202-196.743 329.48-464.132 612.101-665.493 938.778-5.45 8.85-32.879 55.6-38.627 72.96-1.55 4.68 10.748-1.03 14.019-4.72 88.051-99.327 150.665-226.103 216.302-339.729C359.96 536.859 486.173 315.409 636.053 108.18c23.347-32.28 45.775-65.563 73.101-94.55 4.645-4.927 2.183 13.856.142 20.312-95.171 300.921-238.594 582.296-354.091 875.145-6.256 15.861-23.132 61.579-28.757 82.536-2.127 7.923-8.624 23.027-.574 24.607 42.062 8.25 145.5-182.215 153.354-194.967C583.56 651.841 669.83 472.826 762.058 296.795c92.558-176.663 192.437-340.714 307.072-503.223 16.57-23.485 75.08-102.234-4.07-84.041C913.826-255.707 791.945-74.711 707.221 38.448c-140.263 187.34-265.292 389.827-378.744 594.484-52.096 93.976-87.245 183.048-93.927 290.881-1.549 24.99-11.954 168.437 46.122 112.227 164.047-158.788 262.788-420.793 350.28-622.168C725.575 196.085 790.458 24.17 863.654-198.787c24.588-74.898 71.82-217.95 79.982-310.409 9.394-106.404-88.123-98.881-151.833-46.928-74.486 60.74-116.207 133.739-159.721 219.926C557.92-189.308 508.398-47.132 459.685 110.53c-67.773 219.351-125.13 446.785-125.355 677.752-.025 25.657-6.756 103.393 14.08 129.816 30.863 39.138 156.317-92.521 166.864-106.704 50.769-68.266 84.109-149.306 118.884-226.294 6.053-13.4 23.825-53.768 18.169-40.195-26.759 64.212-54.452 125.919-82.835 189.962-105.848 238.838-219.75 476.423-300.868 725.233-19.529 59.9-76.207 236.12-39.636 184.82 29.623-41.56 45.671-91.33 66.238-138.04 57.659-130.94 106.16-249.04 159.948-382.64C560.587 862.4 659.89 598.5 783.653 344.503c36.607-75.128 173.698-266.897 98.429-230.587-57.674 27.822-119.461 145.534-148.633 187.813C620.27 465.76 505.497 631.145 405.42 803.663c-1.764 3.041-81.224 164.957-79.543 164.93 35.802-.577 65.099-29.917 96.842-46.485 77.36-40.379 216.835-115.826 289.239-152.901C919.69 662.835 1130.73 568.115 1353.51 497.74c71.27-22.513 164.61-31.856 232.45-66.218 16.59-8.404-36.01-9.533-54.36-12.591" stroke="currentColor" stroke-width="2" stroke-linecap="round"/></svg>