<svg viewBox="0 0 1574 1080" xmlns="http://www.w3.org/2000/svg" style="" fill="none" color="#efefef"><path d="M1117.86-582C1053.74-428.659 940.825-154.248 868.351 3.46c-86.814 188.914-190.779 364.408-299.702 541.032-142.047 230.339-284.855 459.868-431.628 687.218-46.568 72.13-85.755 145.68-127.265 220.35-2.628 4.73-10.873 18.7-8.246 13.98 20.48-36.85 41.263-73.14 63.095-109.28 128.935-213.47 268.339-420.441 411.553-624.519C639.769 499.096 791.972 274.606 885.2 3.461c18.705-54.4 47.855-120.994 58.435-179.15 8.589-47.214-10.713 95.883-24.378 141.886-60.269 202.904-174.534 385.015-275.324 569.338-56.959 104.166-128.399 215.808-163.473 330.71-10.47 34.299 49.585-52.376 69.189-82.409 95.731-146.654 188.382-293.181 294.324-432.825 18.981-25.019 44.102-62.689 7.17-10.749-106.519 149.806-203.847 312.712-292.532 473.671-2.573 4.67-29.558 50.341-18.641 65.927 21.587 30.822 114.63-24.448 125.473-30.097 131.406-68.461 244.792-178.151 381.797-234.328 83.24-34.132 188.95-42.995 277.83-42.995 21.16 0 42.66 1.006 63.82 0 32.83-1.563-65.86 2.899-98.23 8.599-139.7 24.597-280.1 66.212-423.026 64.852-91.075-.867-231.622-18.549-296.834-92.8-21.432-24.403-25.245-57.227-21.509-88.141 11.256-93.14 55.81-187.566 95.001-271.233 37.599-80.268 185.059-302.338 135.869-228.594-11.874 17.801-29.405 31.275-43.019 47.653-18.139 21.823-29.48 48.282-50.548 67.719-28.961 26.718 84.404 14.542 88.548 14.69 130.984 4.69 306.338 37.01 375.708 166.251 13.94 25.99 20.13 71.066 1.43 97.457-77.43 109.293-285.165 159.185-396.496 196.706-192.757 64.964-389.309 117.755-584.347 175.209-29.336 8.641-58.665 17.317-87.831 26.514-17.178 5.417-65.395 16.394-48.756 23.289 38.388 15.909 82.862 6.925 124.398 8.241 217.882 6.903 435.979 8.989 653.895 1.433 216.447-7.504 434.227-21.255 648.877-51.236 218.03-30.454 44.38-10.932 62.38-31.172" stroke="currentColor" stroke-width="2" stroke-linecap="round"/></svg>