<svg viewBox="0 0 1727 1080" xmlns="http://www.w3.org/2000/svg" style="" fill="none" color="#efefef"><path d="M1114.48 95.906c84.4 226.276 153.86 454.128 149.16 698.393-1.39 72.222-7.12 231.761-85.08 272.631-123.77 64.89-285.382-97.264-345.799-179.614C624.828 603.9 550.985 215.244 668.051-118.682c18.661-53.23 114.612-263.42 203.829-152.963 32.401 40.115 58.3 122.427 70.645 165.183C988.5 52.774 1017.97 217.891 1048.78 380.536c15.5 81.824 30.07 158.184 40.35 240.363 5.8 46.42 15.99 108.214.92 155.359-30.23 94.535-202.021-114.541-202.159-114.689-68.06-73.003-163.654-186.373-230.548-260.726-25.702-28.569-51.59-57.007-78.681-84.263-14.033-14.118-54.793-54.625-47.596-36.069 8.926 23.017 35.575 34.255 53.743 50.976 114.663 105.53 224.026 216.434 333.996 326.803 131.055 131.536 262.275 262.922 393.085 394.7 132.29 133.28 278.44 265.22 394.26 414.26 7.81 10.04 21.44 20.44 19.23 32.96-1.5 8.47-16.18-6.53-22.95-11.85-18.71-14.74-36.23-31.03-53-47.96-149.84-151.32-289.27-316.62-416.25-487.259-140.23-188.432-217.34-308.789-334.912-510.587-61.471-105.507-164.77-261.18-196.459-388.53-16.729-67.228 101.508-17.668 117.955-5.649 35.828 26.181 51.367 50.383 73.652 90.05 54.52 97.046 93.719 205.786 128.744 310.968 12.26 36.786 155.99 419.914 19.51 403.421-47.195-5.703-108.924-47.48-139.43-76.496-131.526-125.104-222.347-298.887-298.306-460.589-60.973-129.799-98.516-226.14-133.491-362.7-19.13-74.693-38.79-169.96-26.655-249.325 2.518-16.467 10.46-15.261 17.07-1.777 30.96 63.148 38.525 143.963 50.708 211.382 32.839 181.717 87.17 367.797 93.212 553.076.649 19.898-8.062 51.636-8.447 11.439-1.109-116.043-16.273-224.734-54.454-335.155-29.296-84.72-13.968-33.305-38.775-94.479-13.721-33.836 47.409 55.64 69.004 85.086 117.303 159.955 232.213 321.619 351.783 479.915 156.591 207.31 325.651 406.959 471.181 622.439 59.74 88.45 112.75 178.65 153.95 276.98 12.15 28.99 37.01 112.41 11.89 93.52-14.65-11.01-35.24-49.1-40.72-58.25-70.71-118.16-140.18-238.28-204.26-360.1-134.16-255.025-220.02-516.252-294.55-793.219-6.85-25.442-14.18-50.752-21.13-76.165-4.444-16.266-27.403-46.986-10.717-49.439 4.709-.693 6.2 7.263 8.762 11.274 14.495 22.7 25.725 46.44 36.305 71.3 65.13 152.967 110.96 316.343 164.57 473.59 20.7 60.698 48.32 126.807 54.23 191.759 1.16 12.72-5.81 36.19-6.09 10.42-1.68-154.39 11.04-307.624 4.84-462.663-7.56-188.901-20.68-378.584-50.09-565.515-9.87-62.752-21.19-156.644-59.65-213.383-24.44-36.066-12.67 87.148-7.87 130.445 31.06 279.761 78.6 556.945 122.96 834.783 12.31 77.114 23.49 144.431 30.56 220.893 2.52 27.198 18.65 66.19-3.73 81.85-32.17 22.52-113.27-302.46-115.31-311.458-45.34-200.212-65.96-410.589-131.96-605.489-1.2-3.548-15.86-48.807-29.03-58.277-18.573-13.36-10.728 44.676-12.428 67.488-9.455 126.902-18.718 253.777-36.938 379.799-1.032 7.141-19.354 174.861-34.395 175.581-10.529.504-13.574-16.404-18.134-25.907-48.049-100.126-84.289-206.967-118.466-312.329-59.407-183.138-97.036-379.245-178.312-554.607-51.265-110.609 113.366 215.92 166.554 325.618 100.105 206.462 190.734 416.322 268.139 632.399 42.89 119.718 88.77 247.132 110.86 373.562 10.96 62.73-35.07-17.54-39.85-27.15-107.75-216.674-245.334-409.341-374.704-613.26-34.447-54.298-46.558-76.496-71.182-131.516-9.703-21.681-43.325-85.136 10.73-45.579 283.811 207.691 514.306 492.881 691.666 793.875 29.98 50.87 95.64 171.83 114.89 238.08 12.29 42.28 3.52 96.89-50.55 64.4-119.84-72.01-171.7-263.19-202.84-387.18-54.87-218.403-81.39-441.817-42.83-665.046 6.18-35.771 20.15-147.578 54.95-182.202 15.36-15.279 20.66 18.325 20.28 22.476-9.17 98.862-68.24 209.111-115.08 294.191-32.91 59.761-75.47 132.216-132.41 173.199-36.969 26.613-47.054-14.919-55.949-46.403-37.236-131.797-42.528-273.126-46.001-409.288-.91-35.653 2.752-26.444 7.813 7.781 13.494 91.257 24.014 184.94 17.502 277.228-2.579 36.543-3.308 142.717-16.719 108.62-8.747-22.24-9.721-50.925-13.459-73.894-12.279-75.454-25.405-150.658-46.768-224.224-24.855-85.59-44.845-138.361-83.056-219.188-14.698-31.09-30.81-61.526-47.775-91.44-12.556-22.137-46.248-86.511-45.832-61.07.239 14.674 8.038 28.248 12.856 42.111 58.51 168.326-2.919-24.136 69.019 191.796 44.27 132.881 83.038 267.89 117.174 403.721 14.01 55.746 44.111 140.593 14.519 198.544-18.635 36.491-43.756-70.937-53.327-110.783-39.911-166.156-35.976-336.866-9.495-504.975 10.031-63.682 20.907-123.402 91.329-75.824 89.769 60.648 137.439 183.195 161.699 283.963 23.8 98.87 26.78 201.254 9.82 301.432-11.18 66.065-31.48 154.735-90.68 197.586-86.089 62.31-134.369-66.12-146.722-125.739-29.163-140.749-20.394-301.738 24.451-438.508 35.81-109.219 136.241-234.343 267.691-185.195 104.95 39.241 76.82 186.289 61.98 269.22-25.96 145.063-73.07 513.695-295.623 364.124C768.331 650.41 717.341 457.437 725.66 280.036c5.108-108.934 57.695-309.912 203.058-300.864 146.402 9.113 230.292 201.55 288.112 306.993 165.97 302.654 314.28 622.658 397.39 958.755 17.02 68.82 49.59 231.51 62.6 306.85 5.86 33.98 29.47 124.9 2.49 103.41-22.73-18.11-34.35-57.75-45.2-82.24-58.04-131.02-121.99-258.17-187.92-385.52-196.83-380.224-394.24-762.492-619.075-1127.164-27.361-44.378-49.126-94.576-88.049-129.268-23.155-20.64 9.952 61.22 15.311 91.765 14.87 84.762 18.896 170.424.316 254.813-7.11 32.29-16.673 122.757-47.293 146.305-6.428 4.943-12.14-5.09-13.73-8.577-17.113-37.516-18.651-86.906-23.783-126.29-20.037-153.777-43.869-306.033-98.383-451.934-5.505-14.735-30.267-38.237-15.819-44.458 5.72-2.463 11.263 5.57 16.084 9.514 47.081 38.523 89.608 85.572 127.914 131.887 200.35 242.242 362.257 542.223 443.747 847.124 8.43 31.557 28.94 115.766 1.54 97.972-6.42-4.17-14.86-19.896-16.99-23.893-38.11-71.705-72.11-146.542-106.98-219.751-54.93-115.303-79.164-167.366-131.927-285.359-36.614-81.881-85.266-171.997-111.636-258.986-8.697-28.69 53.46 28.915 74.78 49.998 123.897 122.52 228.553 262.927 323.143 408.938 74.62 115.19 159.37 262.77 218.7 388.423 23.55 49.864 74.37 150.401 63.43 215.661-6.09 36.28-23.35-98.74-24.49-105.93-21.43-135.816-131.89-244.393-212.71-348.651-10.14-13.082-104.47-113.616-101.38-142.752.44-4.164 8.65.276 12.37 2.196 11.83 6.101 67.88 44.666 75.12 50.132 66.14 49.993 123.02 115.771 165.13 187.193 22.65 38.417-82.73-34.165-121.18-56.772-59.82-35.173-121.99-71.453-182.24-105.988-26.1-14.961-97.083-63.723-82.013-37.688 38.223 66.027 92.883 128.658 139.993 187.707 60.24 75.507 121.61 151.571 187.32 222.503 12.36 13.34 21.14 28.58 19.03 6.01-5.02-53.876-22.59-111.107-37.9-162.282-78.14-261.079-169.86-532.009-302.838-770.43-66.423-119.09-113.384-182.554-201.084-282.886-26.438-30.246-54.818-58.773-83.459-86.942-14.611-14.371-30.332-27.596-46.194-40.574-4.56-3.732-10.743-13.581-14.941-9.449-4.32 4.252 5.07 11.02 7.897 16.383 20.998 39.82 20.233 32.013 41.373 83.051 45.616 110.125 74.356 227.906 94.94 345.028 33.397 190.026 39.101 371.185 9.071 560.884-2.397 15.141-1.63 30.854-5.688 45.637-.526 1.918-1.566 5.369-3.485 4.844-31.938-8.723-58.205-31.602-86.675-48.499-212.154-125.914-424.475-251.876-610.44-415.356-29.5-25.933-58.462-52.546-86-80.554-19.85-20.188-59.104-44.481-47.599-70.34 2.422-5.443 11.648-3.308 17.605-3.122 28.369.89 46.305 11.551 70.234 29.109 59.583 43.716 104.264 95.976 152.894 152.338C335.369 435.658 461.693 600.715 588.31 764.369c77.988 100.8 158.721 201.418 209.56 319.361 10.875 25.23-22.423-50.16-33.56-75.27-43.56-98.23-88.332-194.674-118.572-298.353-48.874-167.564-73.448-339.91-81.907-513.919-3.879-79.789-3.978-137.2 4.002-213.763 1.365-13.095 3.604-76.899 31.088-83.044 12.995-2.906 55.562 8.742 61.996 10.643C723.484-71.489 781.276-48.124 832.76-6.817c71.908 57.694 141.063 133.183 199.71 202.117 114.86 135.011 220.04 278.3 286.64 443.877 23.19 57.637 47.34 137.016 40.61 201.522-.99 9.492-10.16 28.631-17.57 22.609-8.73-7.098-21.83-41.846-22.94-44.176-48.06-100.719-106.9-190.402-173.25-280.381-141.82-192.313-293.706-377.43-441.894-564.83-7.274-9.2-27.588-37.325-18.478-29.938C753.709-.774 815.331 96.556 862.214 164.956c186.336 271.86 343.426 582.404 403.876 909.154 5.93 32.03 11.08 64.75 7.99 97.42-1.84 19.54-11.19 22.37-22.44 5.48-13.83-20.78-42.49-82.35-48.86-96.54-63.88-142.317-119.04-288.217-169.93-435.618-42.377-122.722-74.996-226.13-112.228-349.567-12.46-41.309-25.402-82.501-36.281-124.253-8.217-31.532-37.063-82.694-7.995-97.423 39.031-19.777 140.404 118.488 146.454 126.412 73.09 95.651 130.68 201.916 171.04 315.328 9.04 25.399 75.5 192.621 27.86 217.874-33.82 17.93-78.53 33.358-114.86 39.982-115.467 21.057-274.433 27.707-383.724-24.528-20.57-9.831-59.756-36.616-24.832-47.263" stroke="currentColor" stroke-width="2" stroke-linecap="round"/></svg>