<svg viewBox="0 0 947 1080" xmlns="http://www.w3.org/2000/svg" style="" fill="none" color="#efefef"><path d="M743.176-54.884C681.454-13.054 632.293 41.145 584.191 98.13 490.511 209.112 406.177 328.362 344.93 460.6 298.566 560.7 227.314 752.865 365.626 816.483c76.592 35.23 170.911 15.083 233.617-37.94 65.253-55.176 105.981-133.003 142.052-208.827 66.322-139.414 126.393-286.154 178.74-431.451 15.234-42.284 38.381-97.87 17.874-142.98-17.222-37.886-59.935-62.277-96.269-77.762-162.143-69.105-335.491-30.264-448.732 106.295-92.854 111.973-143.153 252.051-183.445 389.748-55.821 190.77-99.993 395.404-100.972 595.124-.25 50.98 2.033 117.47 28.849 163.68 28.963 49.91 80.226 9.2 110.694-16.62 80.131-67.91 149.736-151.15 217.938-230.463 79.19-92.092 160.531-186.166 222.328-291.292 78.281-133.169 77.094-270.86-31.672-385.986-52.284-55.341-121.725-102.878-186.266-40.762-41.511 39.952-73.418 92.439-104.109 140.473-75.363 117.95-150.414 240.913-198.182 373.129-12.972 35.906-52.483 134.224-23.205 175.591 21.975 31.049 82.342-21.797 94.701-32.61 79.846-69.859 147.326-161.131 206.963-247.708 101.452-147.281 204.229-313.101 255.881-486.009 20.721-69.366 15.349-236.524-101.6-191.895-48.559 18.53-83.969 64.342-111.007 105.981-67.919 104.597-118.672 225.249-153.027 344.91-6.395 22.273-46.461 145.244-2.509 160.226 27.045 9.219 60.425-14.992 79.022-30.415 69.031-57.247 124.584-139.14 164.316-218.861 24.45-49.057 29.532-134.053-42.647-146.743-48.032-8.445-91.746 17.553-126.372 47.66C275.756 316.471 160.849 483.22 92.498 644.656 40.72 766.948 9.025 909.234 1.873 1041.93c-3.51 65.13.524 125.25 70.556 142.98 239.965 60.77 440.704-216.552 513.957-404.485 40.371-103.572 65.837-219.844 70.869-331.114 1.663-36.751-3.01-71.679-20.696-104.1-17.725-32.494-106.998 84.993-118.533 97.202-60.992 64.56-131.177 136.691-166.197 220.115-2.217 5.281-7.293 17.278 3.762 12.856 60.193-24.075 120.206-78.189 167.766-119.464 63.08-54.745 121.153-114.297 159.612-189.387 4.275-8.348 54.37-115.645 32.612-129.812-22.564-14.692-45.95 29.196-64.284 48.915C549.344 395.291 466.446 525.868 384.441 650.3c-8.705 13.208-235.838 326.318-183.758 359.65 15.339 9.81 50.165-3.01 62.716-7.53 113.608-40.942 227.105-105.679 323.614-177.471C742.158 709.54 835.049 548.774 818.435 351.796c-2.071-24.565-13.198-36.064-35.748-39.822" stroke="currentColor" stroke-width="2" stroke-linecap="round"/></svg>