<svg viewBox="0 0 1081 1080" xmlns="http://www.w3.org/2000/svg" style="" fill="none" color="#efefef"><path d="M606.648 791.565c-34.496-36.939-77.138-76.124-93.881-133.849-16.681-57.506-8.659-132.642.512-196.375 16.402-113.995 34.353-232.455 63.203-344.777 25.326-98.606 68.709-185.471 116.662-271.067 15.934-28.443 30.827-61.407 50.447-86.179 13.882-17.527 29.881-31.956 43.188-50.333 4.812-6.645 9.679-16.481 13.981-4.532 8.314 23.098 10.024 55.331 12.984 80.861 7.446 64.219 13.637 128.502 11.66 195.677-6.669 226.598-67.363 461.852-138.489 680.198-42.076 129.166-88.536 262.099-159.438 373.341-19.51 30.61-40.687 56.51-61.989 84.52-8.179 10.76-14.299 27.63-18.013 5.97-29.651-172.857 20.406-386.161 60.849-563.512 28.436-124.7 60.346-250.408 94.681-373.773 7.215-25.924 23.109-99.792 50.353-114.997 18.633-10.399 43.843 9.12 54.163 19.552 65.416 66.129 111.677 167.888 152.192 261.406 86.615 199.929 170.357 424.53 212.527 656.564 9.69 53.31-1.86 40.99-33.77 22.98-116.117-65.532-232.884-128.32-352.222-185.794-14.499-6.984-41.02-18.634-56.928-29.651-2.291-1.586-4.807-3.143-6.212-5.983-2.546-5.148 9.305 3.431 13.379 6.464 77.16 57.444 148.721 128.565 221.583 193.984 190.66 171.17-110.108-98.105 35.818 35.51 19.457 17.81-25.245-53.191-39.902-77.638-85.807-143.122-182.509-272.821-282.12-398.796C454.143 422.457 333.34 275.38 204.522 142.507c-47.41-48.902-30.21-30.702-62.234-55.546-20.754-16.1 43.612 27.908 64.744 43.262 251.374 182.634 493.232 395.418 689.017 668.344 46.033 64.171 92.886 143.205 132.951 215.583 9.16 16.56 44.49 71.87 49.93 100.47 2.98 15.71-11.81-27.34-17.32-41.35-27.51-69.87-60.73-126.018-107.705-174.621C893.1 835.738 831.339 793.617 762.324 744.38c-120.563-86.012-242.446-169.848-364.491-252.788-37.963-25.799-148.351-106.155-118.647-66.703 58.777 78.067 130.895 140.088 192.778 213.976 47.327 56.509 147.772 165.373 119.254 280.294-13.14 52.951-65.306 85.781-100.275 101.981-86.718 40.18-177.128 41.69-260.453 25.95-87.98-16.63-205.569-57.398-227.263-185.427-6.425-37.917 3.898-81.435 7.077-119.755" stroke="currentColor" stroke-width="2" stroke-linecap="round"/></svg>