<svg viewBox="0 0 1193 1080" xmlns="http://www.w3.org/2000/svg" style="" fill="none" color="#efefef"><path d="M543.708 2.651C715.977 79.035 840.118 213.15 929.672 380.31c93.948 175.363 142.128 376.088 166.398 572.311 13.56 109.679 25.16 233.759-11.22 340.919-3.97 11.71-30.5 86.68-58.19 64.44-20.46-16.42-38.241-62.29-45.481-78.96-35.303-81.27-61.193-154.97-88.944-240.64-87.293-269.511-158.722-544.894-235.147-817.637-40.908-145.99-105.96-318.178-83.491-473.682 3.158-21.858 20.181-71.443 35.749-55.781 30.609 30.792 44.404 138.659 55.425 172.638C790.562 251.76 976.297 626.694 1021.69 1036.54c1.78 16.07 2.37 62.61-5.03 48.24-11.38-22.07-24.148-71.13-27.9-84.24-71.083-248.424 3.365-.894-90.881-326.015C832.722 449.75 760.315 229.077 672.54 12.174c-.632-1.562-47.04-117.018 5.105-48.99 69.041 90.073 113.761 212.893 157.285 314.784 106.194 248.604 205.75 501.586 273.78 763.632 8.12 31.28 25.68 111.53 32.36 149.67 2.71 15.47 18.34 55.08 4.98 46.84-4.91-3.02-2.25-11.3-3.06-17-2.93-20.75-5.14-41.6-8.16-62.34-14.9-102.4-34.41-227.299-54.77-325.849-38.04-184.097-72.87-435.323-211.915-577.87-43.831-44.934-65.358-31.78-48.642 25.352 93.832 320.712 257.447 617.362 355.787 936.727 2.66 8.64 15.56 54.04 16.61 69.93.29 4.28-8.83-3.22-10.78-7.04-52.51-102.96-77.59-223.51-108.08-333.624-59.36-214.336-117.347-428.576-198.394-636.001-12.624-32.311-24.255-65.265-40.953-95.671-2.838-5.167-4.868 11.203-4.558 17.091 14.461 274.444 73.864 542.956 107.222 815.035 1.807 14.74 6.041 56.96 6.204 75.86.061 7.14 2.237 21.29-4.893 20.86-37.256-2.23-82.821-185.38-86.654-197.845-50.917-165.605-84.515-335.348-123.785-503.878-39.411-169.136-87.749-329.241-148.861-491.27-8.832-23.415-40.942-102.578 21.794-69.949 119.874 62.348 183.053 241.543 229.737 355.439 77.286 188.558 138.423 386.556 189.331 583.853 23.37 90.597 33.53 173.357 15.6 265.71-4.15 21.4-26.72 144.59-63.391 84.52-103.573-169.69-129.548-412.113-159.289-600.971-32.166-204.25-49.288-363.336-62.264-567.262-4.359-68.504-12.91-199.405.413-279.122 15.332-91.741 95.881-64.092 138.228-6.379 49.508 67.474 68.723 138.122 86.566 220.278 30.407 140.02 41.087 270.682 47.697 414.22 9.19 199.702 7.84 403.941-42.442 598.673-5.585 21.632-16.897 88.623-40.233 106.343-34.565 26.25-111.535-112.14-117.327-126.4-27.874-68.636-38.267-144.23-50.755-216.722-2.173-12.618-8.332-50.527-6.531-37.851 8.524 59.972 18.381 118.036 28.31 178.221 37.028 224.442 81.117 449.592 95.12 677.042 3.371 54.76 12.638 215.68-6.976 164.45-15.887-41.51-18.538-86.96-25.667-130.83-19.986-122.97-35.061-233.11-51.203-357.48-31.635-243.738-57.669-487.88-106.483-729.019-14.439-71.325-88.084-262.924-32.577-215.871 42.532 36.054 68.888 148.774 84.238 190.786 59.552 162.994 120.151 327.478 166.805 494.762.822 2.949 32.416 156.792 31.005 156.402-30.05-8.31-48.332-39.44-71.467-60.34-56.38-50.944-157.451-145.015-210.376-192.088C514.386 715.94 357.206 589.985 184.809 481.984 129.661 447.436 53.032 419.165 3.36 375.377c-12.148-10.708 32.434-.166 48.564 1.264" stroke="currentColor" stroke-width="2" stroke-linecap="round"/></svg>