<svg viewBox="0 0 1533 1080" xmlns="http://www.w3.org/2000/svg" style="" fill="none" color="#efefef"><path d="M444.266 1563c62.455-149.52 172.421-417.11 243.005-570.888 84.55-184.212 185.803-355.337 291.885-527.566C1117.5 239.941 1256.58 16.126 1399.53-205.566c45.35-70.339 83.52-142.051 123.94-214.87 2.56-4.609 10.59-18.235 8.03-13.625-19.94 35.925-40.18 71.315-61.45 106.561-125.57 208.148-261.34 409.972-400.81 608.971-159.349 227.342-307.583 446.244-398.379 710.641-18.217 53.048-46.607 117.978-56.911 174.688-8.365 46.04 10.434-93.49 23.742-138.35 58.698-197.856 169.982-375.434 268.143-555.169 55.474-101.574 125.055-210.436 159.215-322.479 10.19-33.445-48.3 51.072-67.39 80.358-93.233 143.004-183.468 285.883-286.648 422.052-18.486 24.397-42.951 61.129-6.983 10.482C807.771 517.616 902.56 358.765 988.932 201.812c2.506-4.554 28.788-49.088 18.158-64.286-21.027-30.055-111.643 23.839-122.203 29.348-127.979 66.757-238.408 173.717-371.84 228.495-81.071 33.283-184.023 41.926-270.587 41.926-20.604 0-41.545-.982-62.148 0-31.974 1.523 64.141-2.828 95.666-8.385 136.057-23.985 272.792-64.565 411.991-63.238 88.7.845 225.581 18.086 289.092 90.489 20.873 23.796 24.589 55.804 20.949 85.948-10.963 90.822-54.355 182.897-92.524 264.481-36.618 78.27-180.232 294.81-132.326 222.91 11.565-17.36 28.638-30.501 41.898-46.472 17.666-21.28 28.711-47.081 49.229-66.033 28.205-26.054-82.202-14.18-86.239-14.325-127.567-4.573-298.35-36.088-365.904-162.113-13.584-25.342-19.605-69.297-1.396-95.031 75.408-106.573 277.726-155.223 386.154-191.81 187.729-63.347 379.158-114.824 569.108-170.848 28.57-8.426 57.13-16.886 85.54-25.854 16.73-5.282 63.69-15.986 47.48-22.71-37.38-15.512-80.7-6.752-121.15-8.036-212.2-6.731-424.609-8.764-636.841-1.397-210.797 7.318-422.899 20.726-631.952 49.962-212.346 29.695-43.22 10.659-60.752 30.396" stroke="currentColor" stroke-width="2" stroke-linecap="round"/></svg>