<svg viewBox="0 0 1920 1080" xmlns="http://www.w3.org/2000/svg" style="" fill="none" color="#efefef"><path d="M979.467 70.038C817.402 249.09 668.642 435.13 582.719 663.833c-25.405 67.621-79.056 217.981-21.72 284.776 91.02 106.041 301.121 15.106 387.699-39.079C1246.66 723.045 1458.94 389.209 1473.59 35.662c2.34-56.358-9.12-287.129-132.85-217.472-44.93 25.297-99.42 92.206-126.7 127.371-101.58 130.964-189.99 273.495-278.736 413.233-44.647 70.3-86.413 135.865-126.337 208.426-22.553 40.987-54.862 94.637-58.282 144.016-6.857 99.013 230.048-31.757 230.23-31.843 90.225-42.676 220.955-112.681 310.595-157.043 34.44-17.045 69.01-33.9 104.25-49.211 18.26-7.932 71.11-30.504 57.56-15.922-16.8 18.087-45.72 18.68-68.78 27.501-145.55 55.672-288.16 118.297-431.136 180.201-170.398 73.776-340.881 147.357-511.14 221.452C270.073 961.307 85.508 1029.88-77.202 1125.55c-10.965 6.45-27.469 11.07-30.046 23.52-1.744 8.43 17.449-.08 25.702-2.53 22.84-6.78 45.136-15.43 66.969-24.97 195.162-85.21 385.823-187.265 566.888-298.884C752.251 699.43 868.392 616.1 1052.23 472.053c96.12-75.313 249.64-181.778 326.16-288.394 40.39-56.284-87.79-53.938-107.51-48.85-42.97 11.084-66.36 27.828-101.73 56.448-86.53 70.02-163.14 156.569-234.57 241.354-24.981 29.653-300.158 332.516-167.243 367.64 45.96 12.145 118.76-3.855 157.831-19.54 168.452-67.628 317.082-195.532 447.432-317.704 104.63-98.069 175.13-173.711 258.1-287.671 45.38-62.332 98.87-143.584 116.93-221.814 3.74-16.231-4.08-18.046-15.21-7.96-52.11 47.23-89.01 119.526-125.25 177.668-97.68 156.708-216.95 309.527-291.05 479.451-7.95 18.249-11.59 50.958 3.62 13.75 43.93-107.414 98.19-202.802 174.49-291.289 58.53-67.893 25.29-25.784 70.95-73.456 25.26-26.368-64.62 34.175-95.57 53.554-168.12 105.267-334.65 213.007-504.26 315.895C743.219 755.881 512.333 878.9 297.465 1025.32c-88.207 60.11-170.802 124.33-245.434 200.47-22 22.44-75.938 90.77-45.612 82.5 17.684-4.82 50.896-32.6 59.367-39.08 109.376-83.65 218.328-169.58 322.902-259.09 218.925-187.375 395.26-398.365 566.888-628.168 15.765-21.109 31.932-41.916 47.784-62.962 10.14-13.469 42.83-33.526 28.24-41.974-4.12-2.384-8.45 4.457-12.31 7.237-21.865 15.734-41.071 33.643-60.094 52.83-117.055 118.061-220.032 252.925-327.97 379.219-41.664 48.749-91.766 99.966-121.269 158.128-5.778 11.391-7.973 35.777 1.81 11.941 58.624-142.838 103.451-289.92 166.519-431.687 76.843-172.731 159.148-344.13 255.57-506.952 32.368-54.658 77.594-137.717 134.304-176.221 36.04-24.475-20.44 85.661-40.91 124.115-132.269 248.467-278.894 488.45-422.812 730.213-39.944 67.101-75.21 125.521-110.047 193.952-12.392 24.341-41.793 54.611-26.788 77.436 21.572 32.813 217.048-239.175 222.267-246.782 116.137-169.272 213.064-357.126 346.43-513.827 2.43-2.852 32.77-39.49 48.51-43.422 22.2-5.548-6.54 45.48-13.4 67.304-38.12 121.409-76.408 242.723-106.06 366.554-1.681 7.017-46.651 169.63-32.942 175.859 9.597 4.361 18.676-10.224 26.426-17.369 81.656-75.274 154.826-161.152 225.526-246.419 122.89-148.21 230.34-316.518 370.68-449.418 88.52-83.826-185.15 158.723-275.11 240.992-169.34 154.837-331.117 316.335-482.909 488.498-84.101 95.387-173.836 196.812-241.09 306.123-33.369 54.24 39.066-3.33 47.059-10.49 180.21-161.504 379.268-289.669 574.85-431.327 52.08-37.719 71.54-53.869 114.76-95.891 17.02-16.558 71.72-63.091 6.87-46.316-340.478 88.075-660.067 267.867-936.122 481.984-46.661 36.192-152.378 124.31-194.754 178.75-27.045 34.75-39.087 88.73 23.167 78.53 137.969-22.61 256.819-181.089 331.59-284.781C655.064 713.123 762.28 515.333 808.967 293.661c7.481-35.522 35.832-144.572 16.29-189.609-8.624-19.874-25.973 9.389-27.15 13.388-28.026 95.249-13.892 219.524-1.81 315.895 8.486 67.691 21.25 150.747 59.005 209.873 24.517 38.394 49.239 3.532 69.142-22.435 83.316-108.699 140.476-238.062 194.026-363.297 14.03-32.792 7.22-25.589-10.13 4.342-46.27 79.806-90.67 162.965-118.737 251.124-11.111 34.908-49.68 133.832-24.615 107.108 16.349-17.432 27.856-43.726 39.822-63.686 39.3-65.571 79.29-130.598 126.33-191.057 54.74-70.341 92.82-111.986 158.2-172.964 25.15-23.455 51.37-45.78 78.19-67.304 19.85-15.929 74.95-63.29 65.16-39.804-5.65 13.546-17.91 23.276-27.51 34.376-116.59 134.778 11.63-21.348-135.03 152.701-90.25 107.106-176.18 218.224-258.1 331.816-33.626 46.62-92.958 114.331-86.882 179.116 3.826 40.795 66.877-49.739 90.502-83.226 98.5-139.635 157.94-299.71 195.48-465.7 14.21-62.88 26.18-122.391-56.84-104.213-105.83 23.172-195.418 119.418-255.206 204.083-58.661 83.07-99.273 177.102-120.545 276.453-14.028 65.52-27.95 155.411 11.222 217.11 56.96 89.72 149.293-11.769 182.809-62.6 79.12-120 130.48-272.829 139.37-416.489 7.09-114.721-39.97-268.104-180.276-271.025-112.028-2.334-140.243 144.698-157.107 227.241-29.499 144.385-121.983 504.324 140.093 447.609 181.46-39.27 300.17-199.728 358.02-367.64 35.51-103.107 60.94-309.29-77.47-354.613-139.41-45.648-288.481 102.153-381.185 178.754-266.091 219.87-522.174 462.393-723.633 743.964C49.15 1010.61-41.25 1149.73-81.185 1214.93c-18.01 29.41-73.554 105.17-40.543 95.17 27.816-8.43 53.267-40.96 72.4-59.71C53.034 1150.1 159.455 1055.6 267.78 961.636 591.216 681.094 915.946 398.87 1259.65 143.131c41.83-31.121 80.61-69.719 129.6-87.567 29.14-10.619-31.88 53.206-48.15 79.607-45.15 73.262-80.55 151.369-94.48 236.65-5.33 32.63-29.88 120.225-10.13 153.424 4.14 6.969 13.16-.243 15.92-2.895 29.77-28.533 49.46-73.857 68.78-108.555 75.46-135.479 153.89-268.143 258.47-383.56 10.56-11.657 42.26-24.342 31.13-35.462-4.4-4.403-12.52 1.011-18.46 2.895-57.99 18.392-114.89 46.388-167.61 75.265-275.7 151.029-537.017 369.92-725.438 623.105-19.502 26.204-69.686 96.868-37.648 90.463 7.509-1.502 21.165-12.993 24.616-15.922 61.915-52.54 121.172-109.508 180.636-164.642 93.657-86.834 135.414-126.253 228.054-216.386 64.29-62.548 142.81-128.298 199.47-199.379 18.68-23.443-60.37 7.107-87.97 18.816-160.41 68.045-309.552 159.825-451.411 260.532-111.915 79.45-245.22 185.249-346.793 280.072-40.309 37.63-124.688 112.262-138.645 176.945-7.76 35.961 58.189-83.116 61.901-89.377 70.119-118.277 212.888-178.335 326.522-245.335 14.259-8.407 139.068-66.953 146.971-95.166 1.129-4.032-8.139-2.941-12.308-2.533-13.248 1.296-79.587 16.41-88.327 18.816-79.94 22.003-157.1 62.1-222.629 112.897-35.247 27.324 89.493-1.168 133.577-7.96 68.59-10.569 139.761-21.302 208.511-31.12 29.784-4.253 113.763-23.324 90.137-4.704-59.918 47.224-133.861 85.214-199.461 122.667-83.883 47.893-169.022 95.886-256.294 137.504-16.419 7.83-30.21 18.749-19.909-1.448 24.584-48.203 62.058-94.89 95.205-136.779 169.105-213.707 354.472-431.547 566.163-603.928 105.74-86.103 172.83-127.715 291.41-188.524 35.74-18.331 72.66-34.347 109.68-49.935 18.89-7.952 38.39-14.429 57.92-20.625 5.62-1.782 15.01-8.649 17.38-3.257 2.44 5.548-8.79 8.365-13.39 12.303-34.23 29.239-30.64 22.267-69.15 61.876-83.09 85.465-153.33 184.28-215.75 285.5-101.27 164.223-173.53 330.444-215.75 517.807-3.37 14.955-9.89 29.272-11.58 44.508-.22 1.977-.53 5.567 1.45 5.789 32.9 3.7 65.76-7.849 98.46-13.026 243.67-38.577 487.51-77.137 720.74-160.3 36.99-13.192 73.74-27.215 109.68-43.06 25.91-11.421 71.36-19.484 70.23-47.764-.24-5.953-9.6-7.38-15.2-9.408-26.69-9.66-47.3-6.383-76.02 1.085-71.53 18.597-132.36 50.64-198.38 85.035-183.57 95.637-361.96 202.311-540.1 307.572-109.72 64.835-221.93 128.483-312.764 219.283-19.429 19.42 39.376-38.32 59.006-57.54 76.788-75.166 154.038-148.231 220.458-233.389 107.35-137.631 193.89-288.688 266.07-447.246 33.09-72.705 54.41-126.012 75.29-200.103 3.57-12.672 25.08-72.785 1.81-88.654-11-7.503-54.86-12.415-61.54-13.026-64.97-5.95-127.3-5.601-190.41 13.75-88.14 27.029-180.3 71.608-260.27 113.983-156.638 82.992-307.329 177.256-430.42 306.487-42.847 44.985-94.627 109.815-112.219 172.24-2.588 9.186-1.145 30.358 7.964 27.501 10.738-3.367 35.754-30.813 37.648-32.567 81.889-75.82 169.704-137.405 264.62-196.484 202.864-126.27 412.417-242.135 619.377-361.488 10.16-5.859 39.43-24.485 28.24-20.988-83.72 26.151-176.95 93.811-245.8 140.036-273.632 183.729-534.378 414.216-711.325 695.476-17.349 27.578-34.228 56.068-43.439 87.572-5.51 18.84 2.134 24.92 18.823 13.38 20.533-14.19 69.925-60.812 81.088-71.642 111.96-108.623 217.146-223.799 318.919-341.948 84.735-98.369 153.264-182.395 233.484-283.329 26.85-33.778 54.1-67.268 79.64-102.042 19.29-26.262 65.01-63.137 43.44-87.567-28.95-32.805-174.25 58.199-182.8 63.323-103.277 61.86-196.063 139.313-275.485 229.775-17.787 20.26-141.351 151.072-106.427 192.143 24.798 29.162 60.644 60.025 91.947 79.607 99.51 62.248 244.759 127.186 365.615 119.048 22.75-1.531 69.06-11.935 40.55-34.737" stroke="currentColor" stroke-width="2" stroke-linecap="round"/></svg>