<svg viewBox="0 0 1193 1080" xmlns="http://www.w3.org/2000/svg" style="" fill="none" color="#efefef"><path d="M936.378-209C858.588-156.297 796.63-88.012 736.006-16.215 617.939 123.612 511.652 273.856 434.461 440.462c-58.433 126.119-148.234 368.228 26.084 448.382 96.529 44.386 215.401 19.002 294.431-47.801 82.24-69.517 133.569-167.573 179.03-263.103C1017.59 402.291 1093.3 217.411 1159.28 34.351c19.2-53.274 48.37-123.307 22.52-180.143-21.7-47.732-75.54-78.462-121.33-97.972-204.349-87.066-422.822-38.13-565.542 133.922C377.903 31.233 314.51 207.719 263.73 381.205c-70.353 240.352-126.024 498.172-127.258 749.805-.315 64.23 2.563 147.99 36.36 206.22 36.502 62.88 101.109 11.59 139.509-20.94 100.99-85.56 188.715-190.44 274.671-290.36 99.805-116.031 202.321-234.556 280.204-367.005 98.659-167.781 97.163-341.259-39.916-486.306-65.895-69.726-153.412-129.618-234.755-51.357-52.317 50.335-92.53 116.465-131.21 176.982-94.982 148.607-189.57 303.529-249.773 470.11-16.349 45.237-66.144 169.109-29.245 221.228 27.695 39.118 103.778-27.463 119.353-41.086 100.631-88.016 185.677-203.01 260.839-312.089C690.37 450.846 819.902 241.928 885 24.08c26.116-87.395 19.345-297.999-128.048-241.771-61.2 23.347-105.828 81.066-139.904 133.527-85.6 131.783-149.564 283.793-192.863 434.555-8.059 28.062-58.554 182.994-3.161 201.87 34.085 11.616 76.154-18.888 99.593-38.319 87-72.127 157.015-175.304 207.09-275.745 30.814-61.808 37.22-168.895-53.749-184.883-60.535-10.64-115.63 22.115-159.27 60.047C347.28 258.874 202.46 468.962 116.316 672.357 51.06 826.434 11.114 1005.7 2.101 1172.88c-4.425 82.07.66 157.8 88.922 180.15 302.432 76.56 555.427-272.84 647.75-509.617 50.879-130.491 82.974-276.982 89.317-417.172 2.095-46.304-3.794-90.31-26.084-131.157-22.34-40.94-134.852 107.083-149.389 122.465-76.869 81.341-165.325 172.219-209.462 277.325-2.794 6.654-9.19 21.768 4.743 16.197 75.861-30.332 151.496-98.51 211.437-150.514 79.502-68.973 152.691-144.002 201.162-238.61 5.389-10.517 68.523-145.702 41.102-163.55-28.438-18.511-57.911 36.783-81.018 61.628C692.088 358.18 587.61 522.695 484.257 679.467c-10.971 16.642-297.23 411.133-231.593 453.123 19.332 12.37 63.224-3.78 79.042-9.48 143.182-51.59 286.224-133.149 407.857-223.6 195.531-145.405 312.607-347.956 291.667-596.13-2.61-30.949-16.64-45.437-45.056-50.171" stroke="currentColor" stroke-width="2" stroke-linecap="round"/></svg>