<svg viewBox="0 0 1920 1080" xmlns="http://www.w3.org/2000/svg" style="" fill="none" color="#efefef"><path d="M848.579 937.555c77.328-34.888 169.891-69.856 226.001-136.918 55.9-66.809 76.99-164.162 90.76-247.541 24.64-149.132 48.66-304.411 50.83-455.638 1.91-132.76-33.12-256.823-76.69-380.831-14.48-41.206-25.04-87.757-47.65-125.584-16-26.764-37.14-50.34-51.74-77.98-5.28-9.995-9.17-24.028-22.24-10.428-25.26 26.29-43.283 66.316-60.354 97.475-42.943 78.383-83.73 157.268-111.64 242.554-94.144 287.689-98.225 604.516-76.241 903.568 13.005 176.908 31.889 360.038 103.47 524.098 19.698 45.14 44.496 84.92 68.527 127.4 9.227 16.3 12.015 39.62 28.59 13.6C1102.53 1203.59 1114.89 918 1127.22 680.947c8.67-166.679 11.76-335.801 9.53-502.789-.46-35.091 6.33-133.504-34.03-161.853-27.6-19.389-80.63-3.31-103.473 6.347C854.435 83.873 726.36 196.441 612.14 300.57 367.954 523.178 117.26 777.836-64.502 1055.88c-41.765 63.89-15.877 52.27 48.105 40.35 232.845-43.35 465.544-83.03 700.24-115.151 28.517-3.903 80.15-9.627 113.001-18.135 4.731-1.226 9.842-2.337 13.615-5.441 6.836-5.625-17.81 1.182-26.322 3.627-161.214 46.32-319.061 111.75-476.508 169.56-412.008 151.27 237.582-86.41-78.965 32.64-42.207 15.88 68.8-58.48 105.74-84.32 216.265-151.327 445.242-282.066 677.546-407.131 274.55-147.804 553.62-292.298 840.02-416.194 105.41-45.599 66.95-28.478 134.33-48.964 43.66-13.276-88.99 20.435-132.97 32.642C1330.23 384.577 809.627 570.98 341.211 848.694 231.076 913.991 112.575 997.734 9.017 1075.38c-23.705 17.77-111.053 75.51-133.877 109.72-12.526 18.77 33.328-30.47 49.467-46.25C5.135 1060.11 89.209 1000.6 193.72 955.236c135.279-58.723 262.517-90.936 405.713-129.664 250.151-67.654 501.587-132.12 752.887-195.403 78.17-19.684 307.95-83.648 237.8-43.977-138.82 78.5-293.39 132.283-435.67 204.471-108.81 55.208-334.583 158.438-338.546 312.827-1.825 71.13 73.72 130.09 127.069 162.31 132.297 79.88 289.077 112.3 441.567 120.59 161.01 8.75 384.86-2.91 482.41-156.86 28.88-45.6 31.21-103.9 43.56-153.24" stroke="currentColor" stroke-width="2" stroke-linecap="round"/></svg>