<svg width="172" height="167" fill="none" xmlns="http://www.w3.org/2000/svg"><g clip-path="url(#a)" fill="#fff"><path d="m7.95095 65 29.51645 36.999h-8.1715L6.07521 72.6726v29.3264H0V65h7.95095ZM37.4674 101.999H69.394v-5.9098H43.5426v-9.7636h21.2633v-5.9095H43.5426v-9.5066H69.394V65H37.4674v36.999ZM118.467 65.0007h31.105v5.9095h-12.153v31.0888h-6.075V70.9102h-12.877v-5.9095ZM168.092 91.4188c.428.3066.674.738.73 1.2907h2.227c-.01-.7309-.214-1.3763-.604-1.9396-.39-.5633-.927-1.0055-1.612-1.3228-.685-.3209-1.479-.4778-2.385-.4778-.892 0-1.693.1569-2.403.4778-.706.3173-1.264.763-1.672 1.3371-.411.574-.615 1.2443-.615 2.0073 0 .9306.302 1.6722.914 2.232.607.5598 1.44.9769 2.49 1.2514l1.454.378c.457.1177.858.2531 1.202.4029.341.1497.607.3351.801.5562.189.221.288.5028.291.8415-.003.3708-.112.6952-.33.9698-.214.2781-.513.492-.892.6457-.383.153-.826.231-1.328.231-.481 0-.917-.075-1.307-.221-.386-.1494-.702-.3705-.945-.67-.239-.3031-.379-.6774-.411-1.1267h-2.276c.032.8593.253 1.5902.664 2.1887.411.6.98 1.056 1.711 1.366.727.314 1.591.471 2.582.471 1.025 0 1.896-.164 2.616-.485.724-.325 1.276-.774 1.658-1.348.383-.5775.573-1.2443.573-2.0037 0-.5634-.105-1.0518-.313-1.469-.207-.4172-.488-.7737-.843-1.0696-.354-.296-.758-.5419-1.204-.7345-.447-.1961-.914-.3494-1.395-.4635l-1.198-.3031c-.26-.0642-.52-.1426-.78-.2353-.256-.0927-.491-.2068-.702-.3458-.214-.1355-.38-.3031-.502-.5028-.123-.1961-.187-.4314-.187-.7024.007-.3244.099-.6133.281-.8664.183-.2531.45-.4528.794-.6025.344-.1462.759-.2211 1.24-.2211.685 0 1.244.1533 1.676.4635ZM157.072 89.144h2.298v9.1169c-.004.8379-.179 1.5546-.524 2.1571-.347.603-.829 1.063-1.447 1.387-.615.321-1.335.485-2.153.485-.748 0-1.419-.139-2.016-.41-.598-.271-1.072-.678-1.42-1.212-.351-.535-.523-1.2019-.523-2.0006h2.301c.003.3494.081.6524.228.9056.148.2531.351.446.611.581.264.136.566.203.907.203.368 0 .685-.078.941-.238.256-.1574.453-.3927.59-.7064.134-.3102.204-.6953.207-1.1517V89.144ZM148.224 102.251c-.379 0-.703-.136-.973-.407-.271-.271-.404-.599-.401-.987-.003-.378.13-.703.401-.9738.27-.2709.594-.4064.973-.4064.365 0 .685.1355.955.4064.274.2708.411.5958.415.9738-.004.256-.067.492-.193.702-.13.214-.295.381-.503.503-.203.125-.428.189-.674.189ZM75.9854 65h8.1987l10.6933 13.4061 10.6446-13.4054h8.201L98.9396 83.4989l14.7564 18.5001h-8.199L75.9854 65ZM92.6816 91.3671l-4.0929-5.136-12.581 15.7679h8.1991l8.4748-10.6319Z"/></g><defs><clipPath id="a"><path fill="#fff" d="M0 0h172v167H0z"/></clipPath></defs></svg>