<svg width="321" height="167" fill="none" xmlns="http://www.w3.org/2000/svg"><g fill="#FFF"><path d="M85.757 100.545h11.52c9.46 0 17.744-5.49 17.744-17.157 0-11.715-8.284-17.156-17.745-17.156h-11.52v34.313Zm7.352-6.373V72.555h3.432c5.637 0 11.029 2.745 11.029 10.833 0 8.088-5.392 10.784-11.03 10.784h-3.43ZM121.26 105.201h-2.892v5.343h3.627c5.049 0 6.667-2.5 8.284-7.058l1.03-2.941 9.019-24.706h-7.01l-5.146 15.98-5.196-15.98h-6.961l8.921 24.411-.931 2.451c-.637 1.765-1.667 2.5-2.745 2.5ZM142.133 100.545h6.862v-13.53c0-3.186 2.108-5.49 5.098-5.49 2.843 0 4.755 2.157 4.755 5.147v13.873h6.862V85.153c0-5.686-3.627-9.706-9.215-9.706-3.382 0-6.127 1.422-7.5 3.824v-3.432h-6.862v24.706ZM179.534 100.937c2.892 0 5.49-1.177 6.715-2.99v2.598h6.863V75.839h-6.863v2.451c-1.372-1.715-3.823-2.843-6.813-2.843-7.206 0-11.569 5.05-11.569 12.745 0 7.696 4.363 12.745 11.667 12.745Zm-4.951-12.745c0-4.167 2.402-6.912 6.029-6.912 3.676 0 6.078 2.745 6.078 6.912 0 4.118-2.402 6.863-6.078 6.863-3.627 0-6.029-2.746-6.029-6.863ZM209.553 100.937c7.255 0 11.667-5.05 11.667-12.745 0-7.696-4.412-12.745-11.569-12.745-3.088 0-5.49 1.177-6.862 2.99V65.105h-6.814v35.44h6.814v-2.697c1.372 1.912 3.921 3.089 6.764 3.089Zm-7.156-12.745c0-4.167 2.402-6.912 6.029-6.912s6.029 2.745 6.029 6.912c0 4.118-2.402 6.863-6.029 6.863s-6.029-2.746-6.029-6.863ZM235.711 100.937c7.598 0 13.039-5.392 13.039-12.745 0-7.353-5.441-12.745-13.039-12.745s-13.039 5.392-13.039 12.745c0 7.353 5.441 12.745 13.039 12.745Zm-6.176-12.745c0-4.117 2.5-6.912 6.176-6.912s6.176 2.794 6.176 6.912c0 4.069-2.5 6.863-6.176 6.863s-6.176-2.795-6.176-6.863ZM262.28 100.937c2.892 0 5.49-1.177 6.716-2.99v2.598h6.862V75.839h-6.862v2.451c-1.373-1.715-3.824-2.843-6.814-2.843-7.205 0-11.568 5.05-11.568 12.745 0 7.696 4.363 12.745 11.666 12.745Zm-4.951-12.745c0-4.167 2.402-6.912 6.03-6.912 3.676 0 6.078 2.745 6.078 6.912 0 4.118-2.402 6.863-6.078 6.863-3.628 0-6.03-2.746-6.03-6.863ZM290.584 81.525h4.069V75.84h-2.794c-2.99 0-4.853 1.03-6.176 4.118v-4.118h-6.863v24.706h6.863v-12.01c0-4.215 1.519-7.01 4.901-7.01ZM306.422 100.937c2.843 0 5.392-1.177 6.764-3.088v2.696H320v-35.44h-6.814v13.332c-1.372-1.813-3.774-2.99-6.862-2.99-7.157 0-11.569 5.05-11.569 12.745 0 7.696 4.412 12.745 11.667 12.745Zm-4.902-12.745c0-4.167 2.402-6.912 6.029-6.912s6.029 2.745 6.029 6.912c0 4.118-2.402 6.863-6.029 6.863s-6.029-2.746-6.029-6.863ZM2.688 55.493c-1.233 0-2.232.999-2.232 2.231v10.228c0 1.233 1 2.232 2.232 2.232h10.228c1.232 0 2.231-1 2.231-2.232V57.724c0-1.232-.999-2.231-2.231-2.231H2.688ZM42.53 55.493H32.07c-1.232 0-2.232.999-2.232 2.231V67.87c0 1.233 1 2.232 2.232 2.232h9.952c7.35 0 13.308 5.954 13.308 13.298s-5.958 13.298-13.308 13.298H32.07c-1.232 0-2.232 1-2.232 2.232v10.306c0 1.233 1 2.232 2.232 2.232h10.46c15.38 0 27.849-12.62 27.849-27.988S57.91 55.493 42.53 55.493Z"/><path d="M15.147 72.415c0-1.232 1-2.231 2.232-2.231h10.228c1.232 0 2.232.999 2.232 2.231v22.13c0 1.233-1 2.232-2.232 2.232H17.379c-1.233 0-2.232-1-2.232-2.232v-22.13Z"/></g></svg>