<svg width="233" height="167" fill="none" xmlns="http://www.w3.org/2000/svg"><g fill="#FFF"><path d="M28.373 98.493 25.577 80.98c-4.066 0-6.693-.769-8.556-1.623 6.693.683 11.268-4.613 11.268-11.191 0-6.236-4.914-9.739-11.777-9.739H.5v.427c3.05 0 3.304 3.417 3.304 9.653v29.986c0 6.236-.254 9.653-3.304 9.653v.427h15.42v-.427c-2.796 0-2.966-3.417-2.966-9.653V78.417c.424.427 1.61 1.367 3.389 2.221l2.88 17.855c.932 5.894 1.356 9.653-1.44 9.653v.427h15.504v-.427c-3.134 0-3.897-3.417-4.914-9.653ZM12.954 59.794c3.728 0 5.676 3.16 5.676 9.14 0 6.066-2.88 9.398-5.676 7.69v-16.83ZM59.483 99.176 54.57 67.909c-.847-5.894-1.016-9.055 2.034-9.055v-.427H41.776v.427c3.05 0 2.796 3.332 1.864 9.312l-4.913 30.497c-1.017 6.151-1.864 9.483-4.914 9.483v.427h8.133v-.427c-2.965 0-2.796-3.246-1.864-9.141l.593-3.588h8.896l.508 3.674c.932 5.894 1.102 9.055-1.948 9.055v.427h16.097v-.427c-2.966 0-3.813-3.161-4.745-8.97ZM40.844 94.05l4.321-26.91 4.152 26.91h-8.473ZM91.55 108.658h1.355v-40.15c0-6.237.424-9.654 4.575-9.654v-.427H86.89v.427c4.151 0 4.66 3.417 4.66 9.653v18.965L77.486 58.427H65.879v.427c3.135 0 3.389 3.417 3.389 9.653v29.986c0 6.236-.508 9.653-4.575 9.653v.427h10.505v-.427c-4.066 0-4.575-3.417-4.575-9.653V65.175l20.927 43.482ZM117.275 78.844c5.168-1.452 8.642-5.125 8.642-10.678 0-6.236-4.914-9.739-11.777-9.739H98.128v.427c3.05 0 3.304 3.417 3.304 9.653v29.986c0 6.236-.254 9.653-3.304 9.653v.512h15.419c10.252 0 16.521-6.236 16.521-15.89 0-8.798-6.1-13.24-12.793-13.924Zm-6.693-19.05c3.728 0 5.676 3.16 5.676 9.14 0 6.066-2.626 9.227-5.676 9.227V59.794Zm3.304 47.412c-2.118 0-3.304-1.196-3.304-6.407V79.528h.254c6.185 0 9.658 4.954 9.658 13.412 0 7.432-2.456 14.266-6.608 14.266ZM156.381 58c-14.911 0-24.824 9.995-24.824 25.543 0 15.462 9.913 25.457 24.824 25.457 14.91 0 24.823-9.995 24.823-25.457 0-15.548-9.913-25.543-24.823-25.543Zm0 49.633c-8.811 0-15.759-10.422-15.759-24.09 0-13.754 6.948-24.176 15.759-24.176s15.673 10.422 15.673 24.176c0 13.668-6.862 24.09-15.673 24.09ZM207.677 58c-14.911 0-24.824 9.995-24.824 25.543 0 15.462 9.913 25.457 24.824 25.457 14.911 0 24.823-9.995 24.823-25.457C232.5 67.995 222.588 58 207.677 58Zm0 49.633c-8.811 0-15.759-10.422-15.759-24.09 0-13.754 6.948-24.176 15.759-24.176s15.673 10.422 15.673 24.176c0 13.668-6.862 24.09-15.673 24.09Z"/></g></svg>