<svg version="1.2" viewBox="0 0 224.99999 167" overflow="visible" width="225" height="167" xmlns="http://www.w3.org/2000/svg" xmlns:svg="http://www.w3.org/2000/svg"><g><path fill="#fff" d="m 1450.5,1969.6 c -10.7,2.4 -21.3,5.2 -30.3,11.7 -2.9,2.1 -6.1,2.4 -9.3,3 -12.2,2.2 -23.8,6 -35.4,10.2 -5.9,2.1 -1.7,-4.4 -4.2,-5.4 -2.6,-1.1 -4.9,0.5 -6.2,1.9 -5.3,5.5 -11.9,4.6 -18.4,4.8 -3.5,0.1 -6.4,-0.5 -8.7,-3.5 -3.5,-4.5 -8.5,-5.7 -14,-6 -8.6,-0.4 -10.7,-3 -13.5,-11 -3.7,-10.6 -4.3,-21.8 -6.9,-32.6 -1.2,-4.9 1.4,-9.8 3.2,-14.3 3.5,-8.6 8.4,-15.9 17.4,-20.6 6.3,-3.3 12,-7.8 18.7,-10.2 -0.7,-3.2 -3.4,-3.6 -5,-5.3 -3.9,-4.3 -5.7,-8.1 -4.6,-14.9 2.1,-13.8 5.4,-27.4 7.6,-41.1 0.2,-1.3 0.1,-2.6 0.9,-3.7 8.6,-11.5 9.6,-25.8 14.8,-38.6 7.1,-17.6 13.6,-35.4 21.7,-52.7 15.2,-32.4 30.1,-65 46.6,-96.8 8.7,-16.8 17.3,-33.5 25.4,-50.6 6.9,-14.7 12.9,-29.8 19.2,-44.8 4.8,-11.6 10.2,-23 15.5,-34.3 6.5,-13.7 12.4,-27.7 17.9,-42.2 -5.4,-1.5 -10,-3.3 -14.8,-4 -17,-2.6 -28.5,-13.5 -38.5,-25.9 -4.1,-5.1 -9.3,-9.5 -12.4,-15.4 -4.6,-8.7 -10.1,-16.9 -12.7,-26.4 -2,-7.2 -0.6,-13.1 4,-19.5 9.6,-13 21.6,-21.2 37.9,-22.5 6.6,-0.5 11.4,-5.1 17.1,-7.6 8.2,-3.5 16.8,-5.7 25.5,-7.4 5.2,-1 10.4,-2.5 14.8,-5.5 5.9,-3.9 12.5,-5.7 19.2,-7.5 13.7,-3.5 27.6,-6.7 41.2,-10.6 5.9,-1.7 12.1,-2.9 17.1,-7.6 2.1,-2 6,-2.4 9.2,-3.2 29.5,-8 59.5,-13.7 89.6,-18.5 13.6,-2.2 27.6,-2.8 41.2,-4.8 28.8,-4.3 57.6,-3.2 86.4,-3.4 15.9,-0.1 31.5,2.9 46.9,6.3 12.2,2.7 24.5,5.3 35.5,11.9 14.3,8.7 25.3,19.9 31,36.1 1.2,3.3 1.3,6.4 1.4,9.7 0.1,16.1 -1.7,32 -3.1,48 -0.8,8.7 -0.6,17.5 -2.7,26 -2.8,11.6 -8.7,21.3 -17.6,29.4 -9.5,8.7 -20.1,15.3 -31.2,21.9 -10.5,6.2 -19.8,15.1 -27.1,25.5 -1.2,1.7 -2,3.4 -3.9,4.3 -16.4,8 -30.2,20.6 -47.2,27.4 -6.8,2.7 -10.8,8.8 -15.7,13.6 -4.2,4.1 -8.5,7.5 -14.8,6.9 -3.2,-0.3 -6.1,1 -8.3,2.9 -5.6,4.9 -12.1,7.7 -19.1,9.5 -6.3,1.6 -9.4,7.1 -13.2,11.5 -2.7,1.9 -6,2 -9.3,2.8 2.2,4.1 6.1,3.9 9.6,4.6 12.2,6 24.5,11.8 36.7,17.9 20.3,10.1 39.2,22.4 54.3,39.5 15.2,17.2 27.1,36.6 31.9,59.3 2.1,9.9 2.7,20.2 4.6,30.2 0.2,0.9 0.3,1.9 2.5,1.9 3,-6.8 6.3,-13.8 9.1,-21 10.5,-26.6 24.9,-51.3 37,-77 9.5,-20.1 21.4,-38.6 32.3,-57.8 10.9,-19.2 23,-37.8 34.5,-56.8 11.5,-19 22.8,-38 34,-57.2 5.5,-9.4 10.7,-19 16.1,-28.6 0.3,-0.6 0.7,-1.2 0.9,-1.8 4,-12.1 10.4,-22.4 18.8,-32.1 7.7,-8.9 22.7,-14.2 32.8,-4.3 5.2,5.1 10.9,9.6 14.9,16 4.4,7 7.7,7.8 16,6.1 30.7,-6.2 61.2,-13 92,-18.2 22.4,-3.8 44.8,-7.6 67.4,-10.1 23.3,-2.6 46.6,-5.4 70.1,-5.5 5.8,0 11.2,1.6 16.1,4.3 4.9,2.7 5.7,5.1 2.6,10.2 -2.7,4.3 0.4,9.6 -4.2,13.8 -2.1,1.9 -2.2,6.3 -6.4,7.1 -1.2,0.2 -2.1,1.7 -2.1,3.1 0.2,7.9 -3.9,14.4 -6.2,21.5 -1.6,5 -4.5,9.1 -9.6,11.9 -10.2,5.6 -20.1,12.4 -31.7,13.3 -14.2,1.1 -27.5,6.6 -41.9,6.8 -10.7,0.1 -21.3,3.9 -32,5.7 -15.8,2.7 -31.4,6.6 -47,10.4 -18.3,4.5 -36.4,9.9 -54.3,15.8 -5,1.6 -10.1,3 -15.3,3.7 -6.6,0.9 -10.5,4.9 -14.1,10 -6.1,8.6 -9.2,18.9 -15.6,27.4 -3.8,5.1 -7.6,10 -12.2,14.5 -18.5,18 -32.4,39.3 -43.5,62.5 -0.7,1.5 -1.2,3 -2.3,5.6 11.1,-1.2 21.3,-2.4 31.5,-3.5 10.2,-1.1 20.7,-0.7 30.1,-5.5 -1.4,-4.1 -4.1,-3.7 -6.1,-4.7 -8.3,-4.4 -9.2,-14.9 -1.7,-20.4 3.2,-2.3 6.9,-4.2 10.6,-5.3 19.5,-5.7 39,-11.3 59.3,-14.1 15.6,-2.2 31.3,-4.5 46.9,-6.8 7.8,-1.2 15.8,-1 23.7,-2 6.2,-0.8 12.6,0.2 17.9,-4.5 1.8,-1.6 4.3,-1.3 6.7,-0.4 8.7,3.4 17.9,4.3 27.2,4.8 6.1,0.3 11.6,2.9 16.8,5.8 3.1,1.7 7.7,15.3 6.9,18.9 -0.6,2.7 -2.4,3.9 -5,3.9 -8.5,0.1 -17.1,-0.3 -25.6,0.3 -7.2,0.5 -14.3,2 -21.6,1.7 -2.1,-0.1 -4,1.2 -4.3,3.4 -0.6,4.7 -3.8,5.2 -7.7,6.2 -14.7,3.7 -29.7,5.1 -44.7,7 -10.4,1.3 -15.3,2.4 -25,7.9 4.2,5.8 11.6,7.5 16.2,12.7 4.9,5.6 4.8,10.7 -1.1,15.2 -4.2,3.2 -8.7,6.2 -13.7,7.9 -27.1,9.3 -54.5,17.3 -82.8,21.6 -21.8,3.4 -42.2,11.3 -62.5,19.6 -8.8,3.6 -18,6.4 -27.2,8.8 -4.9,1.3 -8.2,3.6 -10.8,7.8 -6.9,11.1 -10.6,23.5 -15.7,35.3 -4.6,10.6 -7.7,21.8 -12.1,32.5 -2,4.8 1.1,8.1 1.4,12 13.1,2.3 24.8,-2.6 35.9,-6.9 36.5,-13.9 73.5,-26.2 110.5,-38.5 19.4,-6.5 38.8,-13.3 58.3,-19.4 13.2,-4.1 26.6,-8.5 40.2,-10.5 10.4,-1.5 20.6,-5 31.2,-4.4 3.8,0.2 6.3,-1.7 8.5,-4.3 4.9,-5.8 11,-7.3 18.5,-7.7 16.5,-0.9 32.5,-4.8 48,-10.9 1.2,-0.5 2.4,-1.5 3.6,-1.6 14.7,-0.8 20.9,-11.6 27.8,-22.4 11.6,-18.1 24.2,-35.5 36,-53.4 20.7,-31.3 42.9,-61.6 65.3,-91.8 19.7,-26.5 38.9,-53.2 58.2,-80 2.4,-3.3 5,-6.2 7.9,-9 9.7,-9.6 18.1,-20 23.8,-32.6 1.7,-3.7 5,-6.1 8.7,-7.9 4.2,-2 8.8,-3.6 12.4,-6.5 7.3,-5.9 15.3,-7.3 24.5,-8.6 9.8,-1.4 19.4,0.1 29.1,-0.9 7.5,-0.8 15.6,1.1 23.3,3.3 2.8,0.8 4.8,2.4 6.1,4.7 2.9,5.5 6.9,7.7 13,5.4 1.5,-0.6 3.3,-0.4 4.9,-0.4 14.8,-0.5 22.8,5.9 24.5,20.7 2.2,19 5.3,38.1 3.7,57.3 -2.1,26.2 -1.2,52.5 -1.9,78.7 -0.3,10.4 -2.1,20.9 -4.4,31.2 -1.5,6.7 -0.6,13.2 -1.1,19.8 -0.3,3.7 2.1,4.7 5.1,4.2 17,-2.9 34.2,-4 51.4,-3.8 4.3,0.1 6.6,-2.7 8.4,-6 7.2,-12.9 18.5,-23.3 23.5,-37.6 0.3,-0.9 1.2,-1.6 1.9,-2.3 12.8,-13.5 25.6,-27 38.5,-40.4 9,-9.3 17.8,-18.7 27.4,-27.3 13,-11.7 26.2,-23.4 41.4,-32.4 4.6,-2.7 7.7,-7.2 11.9,-10.6 13.3,-10.5 28.9,-17.8 42,-28.3 8.7,-6.9 18.1,-11.8 27.6,-17 9.6,-5.2 17.5,-13 27.5,-17.7 7.9,-3.8 15.8,-6.2 24.8,-5.9 15.2,0.5 30.6,-1.1 45.3,4 9.7,3.3 20.8,3.1 28.8,10.9 0.4,0.4 1.2,0.5 1.9,0.5 13.7,1.8 24.5,9.7 34.2,18.2 6,5.2 11.3,11.3 11,22 -0.6,21.5 -9.9,40.2 -14.8,60.2 -0.6,2.3 -1.2,4 -0.3,6.6 1.9,5.7 2.9,11.2 -3.4,16 -3,2.3 -2.1,7.6 -0.8,11.3 2.8,8.6 0.8,16 -4.3,22.9 -0.4,0.5 -1,1 -1.2,1.6 -6.8,16.3 -22,18.9 -36.6,22.1 -3.5,0.8 -7.3,-0.6 -10.7,1.6 -0.5,0.3 -1.4,0.5 -1.9,0.3 -11.7,-6 -27.4,-5.9 -33.8,-20.3 -2.1,-4.7 -2.5,-10.1 -3.3,-15.3 -0.7,-4.5 0.2,-8.8 -2,-13.5 -1.3,-2.9 1.4,-7.9 2.8,-11.8 2.8,-7.4 6,-14.7 9,-22.1 0.7,-1.7 2.4,-3.6 0.6,-5.4 -1.7,-1.6 -3.6,-0.2 -5.6,0.3 -21.6,5.3 -39.4,17.9 -57.8,29.5 -16.5,10.4 -31.3,23 -47.4,33.9 -14.2,9.6 -29,18.5 -42.7,28.7 -9.5,7.1 -19.5,13.8 -27.6,22.7 -1.8,1.9 -4.2,3.7 -2.6,6.8 1.2,2.4 3.6,2.5 5.9,2.9 15.2,3.1 30.2,-0.4 45.2,-1.4 11.6,-0.7 23,-2.3 34.4,-4.2 13.9,-2.3 28.1,0 41.6,-2.3 15.5,-2.7 30.4,0.5 45.5,0.8 18.2,0.4 34.8,7.8 50.3,17.1 4.3,2.6 8.5,7.2 10.3,11.8 5.1,13.2 14.1,23.9 21.2,35.8 3.4,5.8 4.9,11.5 2,17.6 -3.8,8 -4.3,16.8 -4.8,25.1 -1.2,17.4 -8.7,30 -22,41.3 -16.2,13.8 -34.7,22.6 -54,30.3 -8.6,3.4 -17.4,7 -25.2,11.3 -7.7,4.2 -15.5,8.8 -23.5,12.5 -11.7,5.4 -22.4,11.9 -32.9,19.2 -3.3,2.3 -5.4,8.4 -11.3,6.8 -5.1,-1.4 -8.3,3.8 -13.1,3.8 -3.9,0 -6.4,3.3 -9.5,5.1 -1.4,0.8 -2.9,2.2 -2.3,4 2.8,7.2 -3,8.1 -7.2,8.9 -3.8,0.7 -7.6,1.5 -12,0.9 -5.7,-0.8 -12.7,-2.2 -18.4,1.1 -2.9,1.6 -8.2,1.3 -7,7.4 0.2,1.1 -3.1,3.5 -5.1,4.1 -5.1,1.5 -9.9,3.7 -15.1,4.7 -5.5,1 -12.2,0.1 -15.4,6.8 -0.1,0.2 -0.6,0.3 -0.9,0.4 -12.7,2.2 -22.1,11 -33.2,16.3 -1.9,0.9 -3.1,2.3 -4.5,3.7 -5.9,6.1 -14.3,4.3 -21.4,6.4 -0.6,0.2 -1.7,-0.8 -2.3,-1.5 -3.9,-3.9 -8.3,-6.2 -14.1,-5.6 -5.8,0.6 -7.6,-4.2 -8.1,-8.3 -0.6,-4 -2,-5.2 -5.6,-4.9 -4,0.3 -6.8,-0.8 -8.9,-4.7 -1.3,-2.3 -3.8,-4.3 -6.5,-5.8 -7.3,-4.3 -10.9,-12.2 -13.5,-19.2 -2.7,-7.2 1.1,-16 8.1,-19.7 11.2,-5.8 19.5,-15.9 31.6,-20.1 14.8,-5.2 27.7,-14.1 42,-20.5 12,-5.3 22.5,-13.8 33.8,-20.7 24,-14.7 47.8,-29.7 72.3,-43.6 6.6,-3.7 11.5,-10.1 18.7,-13 16.7,-6.6 31.4,-17.1 46.9,-25.8 4,-2.2 9.8,-3.4 10.2,-9.8 -3.4,-1.2 -6.9,-2.1 -10.1,-3.6 -3.9,-1.9 -7.7,-1.7 -11.5,-0.4 -4.3,1.5 -8.5,3.6 -12.9,0.2 -1.2,-0.9 -2.6,-0.2 -3.7,0.3 -9.4,4.9 -20,4 -30,6.4 -6.9,1.7 -13.8,2.7 -21.3,2.2 -7.6,-0.6 -15.5,2.4 -23.3,3.9 -1.3,0.2 -2.7,1.2 -3.8,0.9 -9.2,-1.7 -18.1,0.7 -27.1,1.2 -10.5,0.6 -20.3,3.1 -29.9,5.7 -14.2,3.9 -26,0 -37.1,-7.6 -3.8,-2.7 -6.4,-7.5 -8.8,-11.8 -6,-10.4 -13.3,-20.2 -16,-32.2 -0.8,-3.4 -2.7,-4.3 -5.5,-4.4 -10.6,-0.3 -21.5,-1.1 -30.3,6.6 -4.1,3.6 -9.6,2.7 -14,6.6 -8.4,7.4 -8.9,16.6 -8,25.9 0.5,4.9 1.4,9.1 -2.5,12.7 -2.6,2.4 -2.2,5.4 -2.2,8.4 0,7 -0.7,14.1 0.2,21 1.5,11.5 -3,22.1 -4.2,33.2 -0.2,2.1 -2.1,3.3 -3.9,4.3 -3.1,-3.4 -4,-7.5 -3.7,-11.9 0.5,-7.3 -0.5,-14.5 -1.8,-21.7 -0.3,-1.6 -0.2,-3.9 -2.2,-3.4 -1.9,0.4 -5.6,0.3 -5.1,3.5 0.9,6.5 -1.4,12.8 -0.8,19.4 1.1,12.9 0.5,26 0.5,39 0,4 -5.1,7 -3.3,11 1.4,3.3 0.7,7 2.6,10.8 4.2,-2.1 4.2,-7.8 9.7,-8.2 0.3,6.5 4.3,12.4 1.3,19.6 -0.9,2.2 1,5.6 1.4,8.5 1.4,8.9 -2.4,16.9 -4.2,25.1 -1.1,4.9 -1.6,9.7 -1.6,14.7 0,4.2 -1,8.7 -4.7,10.3 -7.5,3.3 -4.2,13.3 -11.2,16.4 4.2,4.8 0.7,9.9 0.6,14.9 0,3.3 -1.2,2.1 -3.5,1.9 -2.1,-0.2 -4.9,1.8 -6.4,3.6 -4.4,5.2 -9.4,4.2 -14.5,2 -7.3,-3.1 -11.1,-8.8 -11.8,-16.7 -0.3,-3.6 -0.6,-7.3 -0.6,-10.9 -0.1,-5.2 2,-10.6 -2.2,-15.2 0.4,-14.5 -3.8,-28.7 -3,-43.2 0.6,-10.9 -2.5,-21.4 -2.2,-32.3 0.8,-30.5 0,-61.1 0.6,-91.6 0.2,-9.2 -4.2,-17.8 -2.4,-27.1 0.6,-2.8 -2.1,-2.7 -4.1,-2.8 -6,-0.2 -11.7,1.9 -17.5,3 -15.3,2.8 -30,7.7 -45,11.7 -2.6,0.7 -5.6,2.8 -7.7,-1.4 -1,-2.1 -3,-0.6 -4.2,0.2 -13,7.5 -28.3,8.3 -42,14.1 -5,2.1 -10.9,2 -15.3,6 -0.6,0.6 -1.8,1.5 -2.5,0.2 -1.6,-3.2 -3.6,-2.9 -6.4,-1.5 -3.3,1.7 -6.4,3.1 -8.1,6.9 -5.4,11.9 -14.4,21.8 -19.3,34.1 -3.1,7.9 -7.7,15.2 -15,20.6 -2.2,1.6 -3.7,4.9 -4.4,7.6 -1.4,5.9 -4,10.5 -9.1,14 -3.4,2.4 -5.3,5.4 -5.7,10.3 -0.8,9.3 -7.8,15.8 -13.5,22.7 -3.3,4 -7.4,7 -7.3,13.4 0.1,5.7 -5.9,9.3 -8.9,14 -4.2,6.6 -8,13.8 -15.5,17.7 -3.1,1.6 -4.2,5.1 -5.6,8.1 -1.9,4.1 -5.1,6.1 -9.5,5 -3.9,-0.9 -6.1,1.2 -8.5,3.6 -3.9,4 -8,7.9 -14.4,7.3 -0.9,-0.1 -2.5,0.1 -2.8,0.7 -3.8,7.8 -9.6,3.7 -15.3,3.3 -10.9,-0.8 -22,-0.3 -33,-0.4 -5.7,0 -11.3,0.2 -17,-0.1 -6,-0.3 -7.9,-3.5 -7.4,-9.6 1.5,-18.3 8,-35.2 15.4,-51.7 4.6,-10.2 10.9,-19.6 16.4,-29.4 6.9,-12.4 14,-24.6 20.4,-37.3 3.7,-7.3 8.8,-13.8 13.3,-21.9 -9,-2.3 -16.4,2.2 -24.1,1.3 -8.3,-1 -13.1,6.6 -19.5,10.6 0.4,1.4 0.7,3.2 1.2,4.9 0.7,2.4 4,5 2.1,7.1 -2,2.2 -5.5,4 -8.6,4.3 -14.7,1.5 -27.6,8.8 -41.6,12.4 -5.2,1.3 -5.9,7.9 -11.5,8.2 -4.6,0.3 -9.3,-0.8 -13.9,0.8 -2.1,0.7 -4.2,1.6 -6.9,2.6 2.1,4.4 7.1,0.5 9.7,4.2 -9,4.9 -17.5,9.9 -27.6,11.4 -10.4,1.6 -19.7,6.9 -29.9,9.2 -8.5,9.8 -20.7,9.7 -32,12.4 -5.7,1.3 -10.5,5.2 -15.7,7.8 -13,6.5 -27.1,10.4 -39.8,17.8 -12.2,7.2 -25.4,12.7 -39.2,16.4 -14.5,3.9 -27.9,10.2 -41.5,16.4 -15,6.8 -31,8.9 -46.6,3.9 -15.2,-4.8 -30.2,-10.4 -45.5,-15 -4.4,-1.3 -8.4,-4.3 -11.3,-7.9 -5.1,-6.3 -7.8,-14.1 -13.7,-20.1 -4.1,-4.2 -0.6,-10 0.4,-15.5 -7.7,1.5 -11.8,7.3 -16.8,11.3 -24.5,19.7 -51,35.6 -79.9,47.8 -8.8,3.7 -17.2,8.4 -26.9,9.6 -1.8,0.2 -3.8,1.5 -5.2,2.8 -6.4,5.7 -14.7,7 -22.3,9.9 -1.5,0.6 -3.7,0.5 -4.7,1.5 -7,7.4 -16.4,8 -25.5,10.3 -7.2,1.8 -14.3,5.5 -19.8,10.7 -3.6,3.4 -7.7,5.6 -12.2,5.8 -9,0.5 -17.4,2.2 -25,7.3 -0.7,0.5 -1.9,0.4 -2.9,0.4 -5.5,0 -11.4,2.4 -16.1,2 -6.7,-0.6 -11.2,2.8 -16.7,4 -5.5,1.2 -10.7,3.5 -16,5.4 -2.8,1 -5.6,2 -8.4,3.1 -1.6,0.6 -3,1.4 -4.8,0.9 -1.3,-0.3 -2.7,-1 -3,-2.3 -0.4,-1.4 0.5,-2.5 1.9,-3 2.8,-1.1 5.5,-2.3 8.3,-3.3 6.4,-2.1 11.8,-5.7 17,-9.8 6.5,-2.1 13,-4.3 19.5,-6.4 2.1,-0.7 2.3,-2.1 1.9,-3.8 -0.6,-2.2 -2,-2 -3.8,-1.3 -6,2.5 -12.1,4.8 -18.2,7.2 -12.2,1 -23.5,7.3 -36.6,5.1 -6.5,-1.1 -12.9,4.4 -19.4,6.9 -12.8,5.1 -25.7,9.9 -39.5,11.3 -0.1,-0.9 -0.6,-2.7 -0.4,-2.7 4,-1.6 6.7,-5.2 11.6,-5.9 4.8,-0.7 10.6,-1.7 13.2,-7.3 0,0 0.5,0.1 0.6,0.2 0.6,1.2 0.5,-1.4 1.1,-2.1 -11.6,5.5 -21.2,9.8 -30.7,14.1 z M 1751.4,1542 c -5.5,-0.1 -8.9,3.3 -13,7.4 6.7,1 9.5,-3.8 13.5,-6.2 3.5,-1 7.2,-1.7 9,-7.1 -4.6,1.3 -7.5,2.9 -9.5,5.9 z m 13.8,-7.7 c 8.3,-2.7 14.1,-9.8 22.5,-12.2 -10.3,0.1 -15.9,3 -23.4,11.5 -0.8,0.3 -1.8,0.8 -0.9,1.7 0.8,0.8 1.5,-0.1 1.8,-1 z m -171.4,1 c 4.1,2 7,-1 10.2,-2.4 24.3,-10.9 46.3,-25.8 69.8,-38.2 26.1,-13.7 51.7,-28.5 77.4,-42.9 14.5,-8.1 29.4,-15.4 43,-24.8 14.9,-10.3 28.6,-22.4 42.4,-34.1 3.9,-3.3 9.8,-4.7 11,-10.4 -1.3,-2.4 -3.3,-2.6 -5.3,-2.5 -11.8,0.7 -23.3,-1.9 -35.4,-0.6 -19.3,2.1 -38.5,4.3 -57.6,7.8 -4.7,0.9 -8.8,4.8 -12.8,3.8 -4.8,-1.3 -8.2,0.4 -12.2,1.6 -3.7,1.1 -7.5,2.9 -11.2,3.1 -24.1,1.2 -44.6,13 -66.2,21.7 -2.6,1 -6.1,4.4 -3.6,7 5.6,6.2 2.3,11.7 0.1,17.5 -3.3,8.9 -5,19.1 -10.4,26.5 -15.6,21.1 -27.9,44 -39.4,67.4 0.5,-0.4 0.7,0 0.4,0.1 -1.2,0 0.6,0.4 -0.2,-0.6 z m -205.6,348.3 c 13.6,-5 27.1,-10.6 41,-15 29,-9.2 58.2,-17.7 87.2,-26.9 31.8,-10.1 63.4,-20.6 95.2,-30.8 38.6,-12.3 76.2,-27.2 112.2,-45.5 10.9,-5.5 21.4,-11.9 32.4,-17.2 8.1,-4 15.6,-9.9 19.2,-19.2 1,-2.7 2.2,-5.3 4.9,-7.3 2.6,-1.9 5,-5.3 3.5,-8.6 -2.3,-5.1 -4.7,-10.5 -10.1,-13.1 -6.7,-3.1 -12.2,-7.9 -18,-12.2 -3.3,-2.4 -6.6,-3.9 -10.6,-4.9 -9.8,-2.6 -19.5,-5.8 -29.1,-9.3 -7.3,-2.7 -13.9,-8 -22.4,-4.3 -0.7,0.3 -2.2,0.1 -2.8,-0.4 -7.3,-6.6 -17,-5.5 -25.4,-6.4 -14.4,-1.5 -28.5,-5.3 -42.9,-6.6 -4.1,-0.4 -8.1,-2 -12.2,-0.3 -6.5,-5.6 -14.8,-3.6 -22.3,-5.1 -10.7,-2.2 -21.7,-1.3 -32.5,-3.3 -6.7,-1.3 -9,0 -11.2,6.7 -2,6.1 -5.1,11.5 -8.2,17 -3.2,5.8 -6.9,11.5 -9,17.7 -5.2,16.1 -11.6,31.6 -20.6,46.1 -4.8,7.6 -9.4,15.2 -18.5,18.5 -4.5,1.6 -7.5,5.4 -10.4,9 -1,1.2 -1.3,3.5 -3,3.8 -8,1.2 -8,8.7 -10.9,13.8 -1.6,2.8 -2.2,6.2 -3.2,9.4 -1.8,5.6 -4.1,10.6 -11.4,9.6 -2.2,-0.3 -3.5,1.7 -3.1,3 1.8,5.3 -0.8,7.5 -4.8,10.3 -4.6,3.3 -4.6,11.1 -11.7,12.4 2,5.4 -3.4,8.4 -4.4,13 -1.4,6.4 -4.6,12.4 -6.7,18.7 -2.2,6.7 -8,9 -13.6,10.5 -6.1,1.6 -6.5,0.8 -8,3.4 -2.5,4.1 -6.2,6.9 -9.5,10.1 -2.6,1.8 -6.6,2.2 -7.8,7.1 3.7,-0.3 6.2,-1.9 8.7,-3.7 z m 1202.3,-372 c -4.3,0.7 -5.8,3.2 -7.4,5.6 -11.8,17.4 -26.4,32.7 -37.6,50.7 -5.8,9.3 -15.1,16.4 -18.9,27.3 -0.4,1.2 -1.6,2.1 -2.6,2.9 -15.1,11.5 -21.5,29.5 -33.9,44.7 30.7,-7.5 60.6,-12.4 89,-23 7.8,-2.9 8.3,-2.7 7.8,-10.8 -1.3,-22.2 4,-44.1 1.7,-66.3 -0.1,-1.4 0.3,-2.5 0.7,-3.8 2.9,-8.7 0.8,-17.7 1.2,-27.3 z m -1181.2,337.9 c 2.4,-0.8 3.2,-2.8 3.2,-5.2 0,-1 -0.6,-2 -1.7,-1.8 -2.7,0.6 -3.1,3 -3.5,5.2 -0.2,1 0.7,1.7 2,1.8 z m 1223,-132.3 c -2.1,3.7 -2.5,7.9 0,12 0,-4 0,-8 0,-12 z M 1596,1938.1 c -0.3,-0.5 -0.5,-1.4 -0.9,-1.5 -1,-0.4 -1.9,0.2 -2,1.3 -0.1,0.5 0.4,1.4 0.8,1.5 1,0.3 1.8,-0.2 2.1,-1.3 z m -7.7,-11.6 c -1.1,0.2 -1.6,1 -1.3,2 0.1,0.4 1,0.9 1.5,0.8 1.1,-0.1 1.6,-0.9 1.3,-1.9 -0.1,-0.4 -1,-0.6 -1.5,-0.9 z m 6,-1.9 c -1.1,0.3 -1.6,1 -1.3,2 0.1,0.4 1,0.9 1.5,0.8 1.1,-0.1 1.7,-0.9 1.3,-2 -0.1,-0.4 -1,-0.6 -1.5,-0.8 z m 739.7,-73.1 c 0.5,-0.2 1.3,-0.3 1.6,-0.7 0.5,-0.9 0.1,-1.8 -0.8,-2.1 -0.4,-0.1 -1.3,0.2 -1.5,0.6 -0.6,0.8 -0.3,1.7 0.7,2.2 z m 20.4,-45 c -1,0.4 -1.4,1.2 -0.9,2.1 0.2,0.4 1.1,0.8 1.6,0.7 1,-0.3 1.4,-1.2 0.9,-2.1 -0.2,-0.4 -1.1,-0.5 -1.6,-0.7 z m -116.1,-38.2 c -0.2,-0.6 -0.3,-1.4 -0.7,-1.7 -0.9,-0.5 -1.9,-0.1 -2.2,0.9 -0.1,0.5 0.2,1.4 0.7,1.6 0.9,0.6 1.7,0.2 2.2,-0.8 z m 123.8,29 c 0.6,-0.7 1.2,-1.4 1.8,-2.1 -0.4,-0.3 -0.9,-0.8 -1.3,-0.8 -1.1,0 -1.8,0.7 -1.7,1.8 -0.1,0.3 0.6,0.6 1.2,1.1 z" transform="matrix(0.06293747,0,0,0.06293747,0.95966849,-19.673638)"/><path fill="#fff" d="m 582.8,1919.1 c -6.2,7.8 -7.9,18.3 -13.9,26.6 -5.1,-1.7 -7.1,-7 -11.7,-9.3 -2.4,2.8 -2.7,6.2 -3.5,9.6 -1.4,6.6 -3.6,8.4 -10.4,7.9 -9.5,-0.7 -18.9,-2.1 -28.4,-3.2 -8.6,-1 -14.4,-5.6 -18.2,-13.5 -2.6,-5.4 -3,-5.2 -9.7,-3.8 0.7,-11.9 0.6,-23.6 1.1,-35.3 0.8,-19.3 6.7,-37.5 8.8,-56.5 1.5,-13.9 7,-27.2 11,-40.7 9.9,-33.2 20.9,-65.9 32.4,-98.5 8.7,-24.7 16.6,-49.8 26.4,-74.1 10.2,-25.4 20.6,-50.8 30.3,-76.4 2.6,-6.8 7,-13.1 7.5,-20.8 -3.7,-0.6 -5.1,2.2 -6.8,4 -11.6,12.2 -23.3,24.2 -33.6,37.5 -12.6,16.1 -25.3,32.2 -37.3,48.9 -9.2,12.9 -18.7,25.6 -26.9,39.2 -5.9,9.8 -12.7,19.4 -21.2,27.4 -4.3,4 -7.8,8.4 -10.1,14.3 -2.9,7.3 -9.2,13 -14.8,18.4 -23.7,22.5 -42.9,48.7 -62,74.9 -3.4,4.6 -7.2,8.6 -12,11.7 -8.6,5.7 -17.1,11.4 -25.5,17.3 -2.1,1.5 -4.3,1.4 -6.6,1.6 -12.9,1.4 -25.7,3.3 -38,7.6 -8.8,3 -17.4,2.6 -26.3,0.4 -9.8,-2.4 -16.3,-8.7 -18.4,-17.7 -2.3,-10 -8.7,-18.2 -10.2,-28.4 -0.3,-1.9 -0.8,-3.7 -0.8,-5.7 0.2,-17.7 0.2,-35.3 0.2,-53 0,-9.8 2.5,-19.4 3.1,-29 0.8,-12.1 5,-23.6 4.4,-36 -0.3,-5.7 1.4,-12.1 2.4,-18.2 2.5,-16.3 3.8,-32.6 5.7,-49 0.6,-5.5 2.6,-10.9 3.8,-16.3 3.6,-16.8 0.9,-33.7 0.3,-51.2 -2.8,3.7 -5.8,7.4 -8.5,11.2 -12.4,17.2 -22.7,35.8 -33,54.3 -13.1,23.4 -25,47.4 -37.3,71.3 -13.8,26.7 -26.7,53.9 -36.1,82.6 -3.1,9.5 -8.4,17.9 -13.1,26.7 -4.2,7.8 -5.7,16 -6,24.8 -0.5,11.8 -2.8,23.3 -5.9,34.9 -3.3,12.4 -10.2,23.5 -11.7,36.5 -0.6,5.4 -4.4,10.9 -8.4,15.6 -7.3,8.7 -12,18.5 -14.2,30 -1.9,10.3 -4.5,20.9 -13.4,28.1 -3.1,2.5 -6.2,5.1 -11,3.9 -0.2,-3.8 -0.4,-7.4 -0.7,-11 -3.6,-0.5 -5.1,1 -5.8,4.1 -0.8,3.9 -3.5,7.1 -7.4,7.1 -14.7,-0.1 -28.8,5.8 -43.7,4.2 -2,-0.2 -3.8,-0.4 -5.8,-1.1 -11.2,-3.6 -11.8,-4.4 -12,-16 -0.2,-13.5 -0.2,-27 4.1,-40.1 0.7,-2.1 0.4,-4.6 0.3,-6.9 -0.5,-13.9 2.7,-27 8.9,-39.4 1.1,-2.3 0.9,-4.6 0.8,-6.8 -0.4,-10.1 1,-19.5 5.3,-29 3.5,-7.7 5,-16.3 6.5,-24.9 2.3,-13.3 6.6,-26.2 11.4,-38.9 15.7,-41.4 28.1,-83.8 43.3,-125.4 10.9,-30 21.6,-60 32.8,-89.8 11.6,-30.9 23.9,-61.5 37.5,-91.6 13.2,-29.3 26.7,-58.6 43.1,-86.4 4.7,-7.9 9.7,-15.9 15.6,-22.9 3.7,-4.4 10.2,-6.3 14.1,-10.6 5.7,-6.2 12.8,-9.2 20.4,-11.7 10.3,-3.4 14.4,-1.8 21,7.1 3.4,4.5 8.8,4.7 13.4,4.8 20.3,0.2 40.4,3.2 60.8,2.1 9.2,-0.5 17.3,2.4 25,7.7 6.2,4.3 14,5.9 21.3,7.4 8.2,1.8 14.5,5.8 20.4,11.4 9,8.6 16.3,18.3 23.2,28.5 2.6,3.9 3.7,8 4.1,11.9 1.3,12 0.5,24.1 -3.2,35.8 -2.7,8.8 -2.9,18.4 -6.3,26.7 -4.7,11.8 -5.6,24.3 -9,36.2 -1.2,4.1 -3,8 -4.4,12 -5.6,17 -7.7,34.5 -10.5,52 -4.7,28.5 -11.1,56.7 -18.5,84.6 -1.3,5 -0.4,9.5 -0.4,14.5 7.5,-6.9 13.6,-14.5 18.9,-22.7 10.5,-16.1 21.2,-32 33,-47.2 6.8,-8.8 10.6,-19.7 17.9,-28.3 4.7,-5.6 9.2,-11.3 14.3,-16.5 4.6,-4.8 8.7,-9.9 11.8,-15.9 4.9,-9.5 11.9,-17.3 19.1,-25 7.7,-8.2 15.7,-16.2 22.2,-25.4 0.6,-0.8 1.2,-1.7 1.9,-2.3 13.8,-11.7 23.6,-26.9 35.8,-40.1 5.2,-5.7 11.4,-10.9 14.1,-18.8 0.9,-2.6 3.9,-4.4 6.1,-6.5 6.3,-6.2 11.5,-13.4 16.5,-20.7 4.3,-6.1 10.2,-11.1 15.5,-16.3 8.1,-8 17.1,-15.1 23.4,-24.7 3.4,-5.1 8.2,-8.5 12.8,-12.1 9.3,-7.4 18.4,-15.2 26.8,-23.6 4.3,-4.3 9.7,-5.7 15.1,-7 10.2,-2.5 20.6,-4 28.3,-12.6 2.4,-2.7 7.1,-4.4 10.8,-4.5 12.5,-0.5 25.2,-1.9 37.6,1.7 1.2,0.4 2.7,0.8 3.5,1.7 9.2,9.9 21.6,15.1 32.4,22.8 11.2,8 20.8,17.4 28.4,28.8 7,10.4 6.5,22.4 4.3,33.7 -3.3,16.4 -8.3,32.6 -18.2,46.7 -0.5,0.7 -0.4,1.9 -0.6,3.1 6.6,1.4 12.3,-1.7 18.3,-2.8 16.6,-2.8 32.4,-8.5 48.7,-12.6 16.6,-4.2 33.5,-6.9 50.4,-9 6.8,-0.9 13.6,-2.4 20.3,-4 11.9,-2.8 24,-4 36,-5.6 26,-3.6 52.2,-3.1 78.4,-4.1 12.2,-0.5 24.5,-1.9 36.7,-1.3 31.4,1.5 62.5,5 91.9,17 14.9,6.1 26.1,16.7 35.9,29.1 2.7,3.4 3.5,6.9 3.4,11 -0.2,7 4.2,14.2 -1.5,20.9 -0.4,0.5 0.8,2.3 1.2,3.6 2.9,8.7 2,17.7 2.1,26.6 0.1,4.8 -1,9.5 -4.2,12.9 -5.3,5.6 -9.3,12 -13.8,18.2 -1.6,2.2 -2.7,4.3 -6.3,3.1 -4,-1.3 -7.6,1.8 -11.4,2.5 -1.4,0.3 -2.1,1.2 -2.5,2.7 -3.1,11 -12.2,17.4 -20.5,23.4 -16.5,12 -35.1,20.1 -54.9,25.6 -8.3,2.3 -15.4,8.7 -23.7,11.7 -11.2,4.1 -19.6,13.3 -31.3,15.9 -6.7,1.5 -12.6,4.1 -18,8.1 -1.6,1.1 -2.8,1.9 -3.3,4.3 -1.1,6.1 -4.4,11.7 -10.5,13.4 -3.9,1.1 -4.2,3 -3.6,5.5 2.6,9.9 1.2,20.2 4.3,30.3 3,10 3.6,20.6 5.3,31 1.7,11 3.5,22 5,33.1 1.5,10.8 2.8,21.6 4.2,32.4 1.7,12.7 4,25.4 5,38.2 0.6,7.9 1.5,15.6 4.1,23.1 1.1,3.2 -0.5,6.3 -2.8,8 -6.6,4.9 -8.1,11.6 -8.1,19.1 0,4.9 -0.9,8.5 -6.3,11 -4.6,2.1 -4.8,8 -5,13 -0.3,9.4 -3.3,12.3 -12.8,10.9 -8.1,-1.2 -16,-3.5 -24.1,-5 -4.2,-0.8 -6.9,-3.1 -9.3,-6.7 -4.8,-7.2 -7.9,-15.4 -13.6,-21.9 -2.9,-3.4 -1.3,-7.6 -2.8,-11.4 -6,-14.8 -7.9,-30.5 -9.9,-46.3 -3.5,-26.8 -9.9,-53.1 -16,-79.4 -1.7,-7.4 -3.7,-14.8 -3.2,-22.4 0.2,-3.8 -1,-7.2 -2.2,-10.6 -3.2,-9.4 -6.6,-18.6 -9.8,-27.9 -1.3,-3.9 -3.3,-5.2 -7.3,-3.3 -7.7,3.7 -16.3,1.5 -24.4,3.3 -3.2,0.7 -5.1,1.4 -3.5,4.8 1.7,3.4 -0.4,4.8 -2.7,6.3 -8.1,5 -16.1,10 -21.6,18.2 -1.6,2.5 -3.7,4.7 -4.7,7.5 -5.5,14.6 -13.6,28 -19.4,42.5 -5.6,14.1 -13.9,27 -18.8,41.4 -1.5,4.4 -3.9,8.4 -5.3,12.8 -0.9,2.7 -1.8,4.1 -4.7,5.3 -5.5,2.2 -4.4,8.6 -5,13 -0.9,6.1 -2.1,11.6 -5.5,16.7 -0.5,0.8 -0.6,2.5 -1.2,2.7 -11.2,3.6 -10.7,13.6 -12.6,22.4 -0.3,1.4 -0.4,3 -2,3 -8.5,-0.1 -9.5,6.9 -11.5,12.4 -2.3,6.4 -9.4,9.2 -10.9,18.3 -2.6,-5.6 -5.4,-6 -9.4,-5.4 -5.9,0.8 -12.4,-1.2 -17.1,4.4 -1.3,1.5 -3.7,2.1 -5.6,1.3 -8.8,-3.2 -17.8,-1.7 -26.7,-1.5 -7.6,0.1 -11.1,-3.2 -12.4,-12.9 -2.1,-16 4,-30.2 9,-44.8 11.3,-32.7 21.3,-65.8 31.5,-98.8 3.8,-12.3 9.1,-24.1 13.8,-36 1.6,-4.1 4.9,-7.4 0.8,-12.5 -2.3,-2.8 1.3,-9.5 5.4,-11.1 7.1,-2.7 10.4,-8 13.3,-14.7 13.4,-31.2 29.7,-60.9 45.8,-90.7 6.9,-12.8 13.6,-25.8 19.1,-39.4 3.4,-8.5 8.2,-16.6 12.6,-25.3 -5.1,-2.6 -8.6,-0.1 -12.1,2.1 -4.4,2.9 -8.6,6.2 -13.6,8.3 -7.9,3.4 -13.3,3 -18.6,-3.3 -4.8,-5.6 -11.7,-8.2 -16.5,-13.8 -2.5,-2.9 -7,-3.5 -11,-3.9 -4.2,-0.5 -6.7,1.1 -8.4,5.2 -4.6,11.2 -10.2,21.8 -17.6,31.7 -4.4,5.9 -7.5,13.1 -9.7,20.6 -2.1,7.3 -5.2,14.3 -8.5,21.1 -6.5,13.5 -13,26.9 -21.2,39.5 -1.1,1.7 -2.1,3.2 -2.7,5.2 -3.6,12.5 -9.3,24.1 -15.3,35.6 -7.7,14.6 -13.2,30 -18.3,45.6 -3.5,10.7 -7.9,21.1 -12.7,31.3 -3.2,6.7 -4.5,13.7 -5.9,20.8 -0.7,3.5 -0.9,8.1 -3.9,10 -6.7,4.3 -7.2,12.3 -11.9,17.8 -2.6,3.1 -4.7,8 -3.1,13.8 2,7.1 -2.6,14.1 -4.8,20.8 -1.8,5.5 -3.2,10.5 -2.2,16.3 1.5,9.4 -2.6,18.2 -4,27.3 -0.1,0.6 -0.4,1.4 -0.9,1.7 -8.5,6 -7.1,15.3 -8.3,23.8 -1.8,12.7 -3.9,25.3 -5.6,38 -0.6,4.6 0,9.3 -0.2,14 -0.1,3.7 -0.5,7.4 -5.4,3.2 -0.9,-0.8 -2,-0.8 -2.5,0 -4.4,7.5 -5,-0.7 -6.9,-1.9 -0.9,-0.6 -0.5,-3.1 -0.7,-4.7 -0.1,-1.7 -0.2,-3.4 -2.5,-3.6 -1.8,-0.2 -3.3,0.6 -4.2,2.1 -1,1.7 -1.8,3.6 -2.7,5.3 -0.7,1.3 -1.9,1.9 -3.3,1.7 -2.2,-0.3 -2.1,-2 -2.4,-3.7 0.2,-2.5 2.5,-4.5 -1,-6.9 z m 344.7,-329.2 c 12.4,-3.2 21.6,-9.2 31.7,-13.4 32.7,-13.6 65.8,-26.1 97.9,-41 7.5,-3.5 15.4,-6 22.9,-9.5 19,-8.8 36.5,-20.3 53.8,-31.9 7.1,-4.8 13.8,-10.2 20.4,-15.8 6.5,-5.6 5.3,-11.4 -2.7,-14.1 -0.9,-0.3 -2,-0.3 -2.9,-0.5 -9.7,-2 -19.4,-3.4 -29.3,-4 -9.7,-0.6 -19.1,2.6 -28.7,2 -9.7,-0.6 -19,1.9 -28.6,2.4 -13.1,0.7 -26.1,3.2 -39,5.5 -13.6,2.4 -26.9,6.2 -40.6,8.1 -4.2,0.6 -6.6,2.8 -5.7,8.4 1.4,8.6 -0.2,16.7 -5.5,24.5 -4.4,6.5 -9.7,13.3 -11.9,20.6 -3.9,12.9 -12.2,22.4 -19.9,32.6 -5.6,7.5 -8.6,16.1 -11.9,26.1 z m -323.5,329 c 1.9,0.2 3.1,-0.9 3.2,-2.1 0.3,-8.3 0.3,-16.6 0.3,-25 0,-2 -1.3,-3 -3.2,-2.9 -2.5,0.1 -3.3,1.7 -3.3,4 0.1,8.9 -1,17.8 3,26 z m 20,-112.5 c 1.4,-0.5 2.2,-1.6 1.8,-2.9 -0.4,-1.2 -1.2,-3.1 -1.8,-3.1 -2.2,0 -1.7,2.1 -1.7,3.5 -0.1,1.2 0.1,2.4 1.7,2.5 z m -19.2,-277.3 c 0.3,0.3 0.5,0.5 0.7,0.7 0.2,-0.4 0.5,-0.9 0.6,-1.3 0,-0.2 -0.4,-0.4 -0.6,-0.7 -0.3,0.5 -0.5,0.9 -0.7,1.3 z" transform="matrix(0.06293747,0,0,0.06293747,0.95966849,-19.673638)"/><path fill="#fff" d="m 3186.3,1433.4 c 17.5,3.4 35.9,-3.8 54.9,-6.7 18.5,-2.8 36.4,-8.7 55.4,-9 11.7,-0.2 23.4,-3.1 35.1,-4.8 1.3,-0.2 2.6,-0.7 3.9,-0.6 12.1,1.3 23.3,-4.3 35,-5.1 10.9,-0.8 21.6,-2.6 32.3,-4.5 15,-2.6 30.1,-3.7 45.1,-5.1 12.5,-1.1 25,-2.9 37.6,-2.5 14,0.5 28,0.2 42,0.1 4.1,0 7.8,0.6 11.3,3.1 6.8,4.8 6.9,4.8 1.5,10.9 -3,3.4 -2.6,8 1.4,10.7 1.5,1 3.4,2.5 2.3,3.4 -4,3.1 -4.6,5.3 0,8.3 0.9,0.6 0.7,4.1 -0.7,4.3 -5.4,0.8 -4.3,8 -9.7,9 -3.5,0.6 -4.3,5.5 -3.8,7.3 1.3,4.5 -0.1,7.6 -2.7,10.7 -2.9,3.3 -6.1,6.6 -10.5,7 -13.4,1.1 -26.5,4.3 -39.8,6.1 -10.7,1.4 -22.2,1.9 -32,8.4 -4.1,2.7 -9.2,3.7 -14.1,4.3 -13.1,1.7 -15.5,4 -16,16.5 -0.2,6.2 -2.4,11.2 -6.6,16 -5.2,5.9 -8.6,13.3 -14.9,18.4 -0.7,0.6 -1.2,1.7 -1.3,2.6 -1.8,16.8 -12.6,29.5 -19.4,44.1 -1,2.2 -2.8,3.8 -4.9,4.9 -1.9,1 -3,2.6 -3.8,4.4 -8.6,19.2 -18.3,37.9 -25.9,57.5 -10,25.9 -21,51.3 -31,77.2 -5.2,13.5 -9.2,27.5 -15.4,40.7 -6.4,13.7 -12.1,27.8 -18,41.9 -1.8,4.3 -3.1,8.7 -4.6,13.1 -1.6,4.6 -2.5,9.3 -8.6,10.9 -3.1,0.8 -4.5,4.7 -5.7,7.9 -4.1,10.8 -8,21.6 -12,32.4 -1.7,4.7 -4.6,8.8 -6.8,13.3 -4.3,8.7 -16.9,13.1 -27.3,10.5 -12.6,-3.2 -24.5,0.9 -33.2,10.6 -4.4,4.9 -8.7,9.9 -16.5,8.1 -3.4,-0.8 -5.7,-1.9 -5.6,-5.7 0.2,-5.3 -0.5,-10.6 0.9,-15.9 3.2,-12.3 5.8,-24.8 9.2,-37 5.6,-20.2 11.3,-40.3 17.8,-60.2 7.4,-22.5 13.3,-45.5 21.1,-67.9 10.1,-29.1 21.8,-57.6 32.8,-86.3 10.7,-28 23.3,-55.2 34.2,-83.1 4.8,-12.2 9.7,-24.7 16,-36.3 1.1,-2 2.3,-4.1 2.9,-6.3 0.7,-2.7 -1.8,-4.3 -3.3,-3.1 -5.2,4.1 -10.9,1.8 -16.1,1.4 -13.4,-0.9 -23.7,4.7 -32.7,13.7 -0.9,0.9 -2,3 -2.4,2.8 -8.8,-3.3 -15,6.8 -23.8,4.5 -3.4,-0.9 -7.2,-0.6 -10.2,-3 -0.5,-0.4 -1,-1 -1.6,-1.1 -18,-2.9 -22.3,-19.3 -31,-31.4 -1.7,-2.4 -3.3,-4.9 -5.5,-6.9 -2.3,-1.9 -4.6,-3.5 -5.2,-6.8 -0.5,-2.7 -2.7,-4.5 -5.4,-5.4 -5.7,-2 -7.1,-7 -7,-12 0.1,-5.5 0.6,-11.7 4.2,-16 6,-7.4 12.9,-14 19.7,-20.8 4.5,-4.5 10.5,-3.6 18.4,-3.5 z" transform="matrix(0.06293747,0,0,0.06293747,0.95966849,-19.673638)"/><path fill="#c8c7c8" d="m 1450.5,1969.6 c 9.6,-4.3 19.1,-8.6 30.5,-13.7 -0.6,0.7 -0.5,3.3 -1.1,2.1 -0.1,-0.1 -0.6,-0.3 -0.6,-0.2 -2.6,5.6 -8.4,6.5 -13.2,7.3 -4.9,0.7 -7.6,4.3 -11.6,5.9 -0.2,0.1 0.2,1.8 0.4,2.7 -3.7,1.1 -3.9,-1.6 -4.4,-4.1 z" transform="matrix(0.06293747,0,0,0.06293747,0.95966849,-19.673638)"/><path fill="#1a3037" d="m 1409.3,1849.5 c -1.3,0 -2.2,-0.7 -2,-1.8 0.4,-2.2 0.8,-4.6 3.5,-5.2 1.2,-0.2 1.7,0.8 1.7,1.8 0,2.4 -0.8,4.4 -3.2,5.2 z" transform="matrix(0.06293747,0,0,0.06293747,0.95966849,-19.673638)"/><path fill="#1a3037" d="m 1596,1938.1 c -0.3,1.1 -1.1,1.6 -2.1,1.3 -0.4,-0.1 -0.9,-1 -0.8,-1.5 0.1,-1.1 1,-1.6 2,-1.3 0.4,0.1 0.6,1 0.9,1.5 z" transform="matrix(0.06293747,0,0,0.06293747,0.95966849,-19.673638)"/><path fill="#1a3037" d="m 1588.3,1926.5 c 0.5,0.3 1.3,0.5 1.5,0.9 0.3,1 -0.2,1.9 -1.3,1.9 -0.5,0 -1.3,-0.4 -1.5,-0.8 -0.3,-1 0.2,-1.7 1.3,-2 z" transform="matrix(0.06293747,0,0,0.06293747,0.95966849,-19.673638)"/><path fill="#1a3037" d="m 1594.3,1924.5 c 0.5,0.3 1.3,0.5 1.5,0.9 0.4,1 -0.2,1.9 -1.3,2 -0.5,0 -1.4,-0.4 -1.5,-0.8 -0.3,-1 0.2,-1.8 1.3,-2.1 z" transform="matrix(0.06293747,0,0,0.06293747,0.95966849,-19.673638)"/><path fill="#fbfbfb" d="m 1593.8,1535.3 c 0.8,1.1 -0.9,0.6 0.4,0.4 0.3,0 0.1,-0.5 -0.4,0 -0.1,0 0,-0.4 0,-0.4 z" transform="matrix(0.06293747,0,0,0.06293747,0.95966849,-19.673638)"/><path fill="#fff" d="m 604.8,1529.1 c 0.2,-0.4 0.5,-0.9 0.7,-1.3 0.2,0.2 0.7,0.5 0.6,0.7 -0.1,0.5 -0.4,0.9 -0.6,1.3 -0.2,-0.2 -0.5,-0.4 -0.7,-0.7 z" transform="matrix(0.06293747,0,0,0.06293747,0.95966849,-19.673638)"/></g></svg>