<svg width="187" height="167" fill="none" xmlns="http://www.w3.org/2000/svg"><path d="m32.25 56.57-6.684 53.859h8.143l1.037-10.151.363-.373h8.154l.319.379 1.037 10.145h8.153l-6.685-53.858H32.25Zm3.432 34.542L38.3 64.99h1.572l2.772 26.12-.364.374h-6.283l-.315-.372ZM154.32 56.571l-4.101 20.523h-.603l-4.278-20.523h-7.873l8.381 33.534v20.324H154V89.897l8.142-33.326h-7.822Zm-17.617 5.25-4.645-5.246h-13.851l-4.646 5.246v43.361l4.646 5.246h13.851l4.645-5.246V61.821Zm-8.153 39.82-.362.371h-6.162l-.313-.371V65.362l.362-.371h6.163l.312.371v36.279Zm-51.213-39.82-4.645-5.246H54.194v53.854l18.497-.001 4.646-5.246V61.821Zm-8.152 39.82-.362.371H62.66l-.313-.371V65.362l.362-.371h6.162l.313.371v36.279Zm116.862-17.83-5.672-6.427-9.002-.002-.317-.375v-11.65l.357-.366h6.177l.303.36v7.893h8.154V61.82l-4.646-5.246H167.55l-4.646 5.246-.002 19.68 4.697 5.063h9.974l.32.38v14.86l-.2.205h-6.415l-.189-.222v-11.09h-8.152l.001 14.483 4.645 5.246h13.851l4.645-5.246h.001l-.033-21.368ZM19.696 56.575.922 56.57v53.858l18.774-.001 4.645-5.246V86.996l-3.488-3.961v-.496l3.489-3.962V61.82l-4.646-5.246ZM9.436 64.99h6.44l.313.371v12.853l-.329.362H9.418l-.339-.374-.005-12.841.362-.371Zm6.753 36.65-.362.371h-6.44l-.313-.371.005-14.265.37-.379h6.413l.326.386v14.258Zm90.169-45.066-18.774-.004v53.858l18.774-.001 4.645-5.246h.001V86.996l-3.489-3.961v-.496l3.489-3.962V61.82l-4.646-5.246Zm-10.26 8.416h6.44l.313.371v12.853l-.329.362h-6.441l-.34-.374-.004-12.841.362-.371Zm6.753 36.65-.362.371h-6.44l-.313-.371.005-14.265.37-.379h6.413l.326.386v14.258h.001Z" fill="#FFF"/></svg>