<svg width="217" height="167" fill="none" xmlns="http://www.w3.org/2000/svg"><path fill-rule="evenodd" clip-rule="evenodd" d="M6.989 53.98h-5.69v46.223h5.69V53.98Zm57.197 18.801c2.4-3.979 6.943-6.942 12.773-6.942 4.371 0 7.8 1.609 10.372 4.148 2.743 2.963 4.372 7.28 4.286 11.767l-.086 3.387H67.615c0 3.047 1.2 6.349 3.257 8.38 1.543 1.524 3.6 2.37 6.172 2.37 2.658 0 4.886-.761 6.258-2.2.943-.931 1.543-1.863 1.972-3.64h5.572c-.515 3.301-2.486 6.349-5.23 8.211-2.4 1.609-5.4 2.54-8.572 2.54-4.8 0-8.658-1.947-11.23-4.995-2.828-3.217-4.2-7.619-4.2-12.36 0-3.978.686-7.534 2.572-10.666Zm12.77-2.201c-6.087 0-9.087 4.91-9.259 9.82H85.7c0-2.455-.686-4.995-2.057-6.773-1.458-1.862-3.686-3.047-6.687-3.047Zm55.015 2.201c2.4-3.979 6.944-6.942 12.773-6.942 4.372 0 7.8 1.609 10.372 4.148 2.743 2.963 4.372 7.28 4.286 11.767l-.086 3.387H135.4c0 3.047 1.2 6.349 3.257 8.38 1.543 1.524 3.601 2.37 6.172 2.37 2.658 0 4.887-.761 6.258-2.2.943-.931 1.543-1.863 1.972-3.64h5.572c-.515 3.301-2.486 6.349-5.229 8.211-2.401 1.609-5.401 2.54-8.573 2.54-4.8 0-8.658-1.947-11.229-4.995-2.829-3.217-4.201-7.619-4.201-12.36 0-3.978.686-7.534 2.572-10.666Zm12.769-2.201c-6.086 0-9.086 4.91-9.258 9.82h18.002c0-2.455-.686-4.995-2.057-6.773-1.458-1.862-3.686-3.047-6.687-3.047Zm33.71-4.74c-5.829 0-10.373 2.963-12.773 6.942-1.886 3.132-2.572 6.688-2.572 10.667 0 4.74 1.372 9.142 4.201 12.36 2.572 3.047 6.429 4.994 11.23 4.994 3.171 0 6.172-.931 8.572-2.54 2.743-1.862 4.714-4.91 5.229-8.211h-5.572c-.429 1.777-1.029 2.709-1.972 3.64-1.371 1.44-3.6 2.2-6.257 2.2-2.572 0-4.63-.846-6.173-2.37-2.057-2.031-3.257-5.333-3.257-8.38h23.917l.085-3.386c.086-4.487-1.543-8.805-4.286-11.767-2.571-2.54-6-4.149-10.372-4.149Zm-9.253 14.56c.172-4.91 3.172-9.82 9.258-9.82 3.001 0 5.229 1.186 6.687 3.048 1.371 1.778 2.057 4.318 2.057 6.773h-18.002Zm46.502-9.368-1.278-4.082-11.843 4.167-1.023-3.981h-4.345v33.067h5.624V76.475l12.865-5.443Zm-203.02-3.898h5.689v33.068h-5.69V67.134Zm5.689-13.154h-5.69v6.045h5.69V53.98Zm26.308 13.158H37.92v6.756h6.756v-6.756Zm-.038 26.312h-6.755v6.755h6.755V93.45Zm7.51-26.312h6.755v6.756h-6.755v-6.756Zm-21.34.002h-6.755v6.755h6.755V67.14Zm14.223 13.153h6.756v6.756H45.03v-6.756Zm-7.115 0H31.16v6.756h6.756v-6.756Zm63.139-9.072c1.961-3.293 6.309-5.15 10.06-5.15 4.092 0 7.332 1.35 9.378 3.546 3.24 3.209 4.859 8.275 4.859 13.764 0 5.742-1.705 10.977-5.115 14.186-2.216 2.027-5.286 3.378-9.207 3.378-3.581 0-7.929-1.69-9.72-4.729v16.804h-5.783V67.137h4.505l1.023 4.084Zm3.666 22.889c1.364 1.182 2.984 2.195 5.456 2.195 7.503 0 9.464-6.67 9.464-12.75s-1.961-12.751-9.464-12.751c-2.472 0-4.092 1.013-5.456 2.195-2.813 2.365-3.751 6.418-3.751 10.555 0 4.138.938 8.107 3.751 10.556Z" fill="#FFF"/></svg>