<svg width="166" height="167" fill="none" xmlns="http://www.w3.org/2000/svg"><path d="M119.299 109.878a2.553 2.553 0 0 1-2.556-2.552V59.674a2.554 2.554 0 0 1 2.556-2.553 2.554 2.554 0 0 1 2.556 2.553v47.652a2.554 2.554 0 0 1-2.556 2.552Zm43.712-6.686a2.551 2.551 0 0 0-.294-3.598 2.557 2.557 0 0 0-3.602.293c-2.642 3.105-6.595 4.886-10.849 4.886-7.046 0-12.779-5.726-12.779-12.763 0-7.038 5.733-12.764 12.779-12.764 5.726 0 10.51 4.11 11.548 9.53h-15.638a2.554 2.554 0 1 0 0 5.106h18.403a2.554 2.554 0 0 0 2.556-2.553v-.34c0-9.291-7.567-16.85-16.869-16.85-9.866 0-17.892 8.017-17.892 17.87 0 9.854 8.026 17.869 17.892 17.869 5.756 0 11.131-2.437 14.745-6.686Zm-54.788 4.134V90.988c0-9.291-7.568-16.849-16.87-16.849-9.865 0-17.891 8.016-17.891 17.87 0 9.853 8.026 17.869 17.891 17.869a2.553 2.553 0 1 0 0-5.105c-7.046 0-12.779-5.726-12.779-12.763 0-7.038 5.733-12.764 12.78-12.764 6.482 0 11.757 5.267 11.757 11.743v16.338a2.553 2.553 0 0 0 2.556 2.552 2.555 2.555 0 0 0 2.556-2.553Zm-77.368-7.658c0-2.492-.917-5.89-5.282-7.932-2.62-1.226-5.906-1.729-9.084-2.216-7.447-1.14-10.09-2.093-10.09-5.17 0-3.35 4.653-5.105 9.25-5.105 2.897 0 7.06.584 10.445 3.364a2.559 2.559 0 0 0 3.598-.35 2.552 2.552 0 0 0-.35-3.594c-4.554-3.741-9.96-4.527-13.692-4.527-9.868 0-14.363 5.293-14.363 10.211 0 2.508.92 5.93 5.302 7.986 2.634 1.236 5.934 1.741 9.127 2.23 7.4 1.134 10.028 2.074 10.028 5.101 0 3.054-3.65 5.106-9.082 5.106-5.561 0-9.799-2.252-11.83-3.595a2.559 2.559 0 0 0-3.542.719 2.55 2.55 0 0 0 .72 3.538c4.334 2.866 9.537 4.444 14.651 4.444 9.805 0 14.194-5.128 14.194-10.21Zm37.06 2.676a2.551 2.551 0 0 0-.714-3.54 2.558 2.558 0 0 0-3.543.714 11.747 11.747 0 0 1-9.8 5.254c-7.046 0-12.778-5.725-12.778-12.763s5.732-12.764 12.779-12.764c3.947 0 7.61 1.964 9.798 5.255a2.558 2.558 0 0 0 3.544.713 2.55 2.55 0 0 0 .714-3.54A16.85 16.85 0 0 0 53.86 74.14c-9.866 0-17.892 8.016-17.892 17.87 0 9.853 8.026 17.869 17.891 17.869a16.85 16.85 0 0 0 14.057-7.534Z" fill="#FFF"/></svg>