<svg width="225" height="167" fill="none" xmlns="http://www.w3.org/2000/svg"><path d="M112.247 70.709c-8.728 0-15.02 5.756-15.02 14.39s7.083 14.39 15.811 14.39c5.273 0 9.921-2.11 12.799-5.668l-6.048-3.533c-1.597 1.766-4.024 2.798-6.751 2.798-3.787 0-7.005-1.999-8.199-5.197h22.152c.174-.895.277-1.823.277-2.798 0-8.626-6.293-14.382-15.021-14.382ZM104.768 82.3c.988-3.19 3.692-5.197 7.471-5.197 3.787 0 6.491 2.007 7.471 5.197h-14.942Zm92.608-11.592c-8.728 0-15.021 5.756-15.021 14.39s7.084 14.39 15.812 14.39c5.273 0 9.922-2.11 12.799-5.668l-6.048-3.533c-1.596 1.766-4.024 2.798-6.751 2.798-3.787 0-7.005-1.999-8.198-5.197h22.152c.174-.895.276-1.823.276-2.798 0-8.626-6.293-14.382-15.021-14.382ZM189.905 82.3c.989-3.19 3.692-5.197 7.471-5.197 3.787 0 6.491 2.007 7.471 5.197h-14.942Zm-30.856 2.798c0 4.797 3.099 7.995 7.906 7.995 3.257 0 5.7-1.495 6.957-3.934l6.072 3.542c-2.514 4.237-7.226 6.787-13.029 6.787-8.736 0-15.021-5.756-15.021-14.39s6.293-14.39 15.021-14.39c5.803 0 10.507 2.55 13.029 6.787l-6.072 3.542c-1.257-2.438-3.7-3.933-6.957-3.933-4.799 0-7.906 3.197-7.906 7.994Zm65.207-23.184V98.69h-7.115V61.915h7.115Zm-194.3-3.998 29.212 51.166H.744l29.212-51.166Zm73.033 3.998-21.907 38.374-21.906-38.374h8.214l13.692 23.983 13.693-23.983h8.214Zm46.573 9.593v7.747c-.79-.232-1.628-.392-2.53-.392-4.593 0-7.905 3.198-7.905 7.995V98.69h-7.116V71.508h7.116v7.355c0-4.061 4.672-7.355 10.435-7.355Z" fill="#FFF"/></svg>