<svg width="277" height="167" fill="none" xmlns="http://www.w3.org/2000/svg"><path d="m46.53 95.326-7.567 8.115a1.75 1.75 0 0 1-1.282.559H1.806a.884.884 0 0 1-.806-.527.881.881 0 0 1 .161-.95l7.56-8.115a1.75 1.75 0 0 1 1.28-.56h35.876a.877.877 0 0 1 .654 1.478Zm-7.567-16.344a1.769 1.769 0 0 0-1.282-.56H1.806a.88.88 0 0 0-.645 1.478l7.56 8.119a1.767 1.767 0 0 0 1.28.56h35.876a.88.88 0 0 0 .64-1.478l-7.554-8.12Zm-37.157-5.83h35.875a1.75 1.75 0 0 0 1.282-.56l7.568-8.114A.877.877 0 0 0 45.877 63H10.002a1.75 1.75 0 0 0-1.281.56l-7.56 8.114a.88.88 0 0 0 .645 1.478Zm88.464 7.191H71.078v-6.32H95.26V67.7H71.013a6.307 6.307 0 0 0-6.342 6.274v6.407a6.308 6.308 0 0 0 6.342 6.282h19.219v6.32H65.128v6.322H90.27a6.306 6.306 0 0 0 6.343-6.274v-6.406a6.309 6.309 0 0 0-6.343-6.283Zm37.183-12.642h-19.266a6.315 6.315 0 0 0-4.481 1.818 6.301 6.301 0 0 0-1.878 4.456v19.057a6.304 6.304 0 0 0 3.937 5.812c.77.312 1.593.469 2.422.462h19.266a6.307 6.307 0 0 0 6.343-6.274V73.975a6.321 6.321 0 0 0-1.872-4.45 6.31 6.31 0 0 0-4.471-1.824Zm-.047 25.284h-19.172V74.022h19.164l.008 18.963Zm67.523-25.288h-18.792a6.307 6.307 0 0 0-6.342 6.274V99.3h6.406V88.92h18.707V99.3h6.406V73.97a6.296 6.296 0 0 0-1.887-4.466 6.301 6.301 0 0 0-4.498-1.808Zm-.047 14.9h-18.706v-8.58h18.706v8.58Zm74.85-14.896H250.94a6.309 6.309 0 0 0-6.342 6.274v25.33h6.406V88.924h18.664v10.383h6.406v-25.33a6.303 6.303 0 0 0-3.926-5.808 6.307 6.307 0 0 0-2.416-.467Zm-.064 14.901h-18.707v-8.58h18.707v8.58Zm-37.157 10.383h-2.562l-9.161-22.636a4.222 4.222 0 0 0-3.912-2.648h-5.685a4.201 4.201 0 0 0-2.981 1.217 4.2 4.2 0 0 0-1.247 2.969v27.419h6.406V74.022h2.563l9.156 22.636a4.236 4.236 0 0 0 3.93 2.63h5.684a4.206 4.206 0 0 0 4.228-4.185V67.701h-6.419v25.284Zm-86.657-25.284h-6.407v25.33a6.308 6.308 0 0 0 6.364 6.275h19.219v-6.321h-19.176V67.7Z" fill="#FFF"/></svg>