<svg width="222" height="167" fill="none" xmlns="http://www.w3.org/2000/svg"><path d="m1.501 88.27 23.043 23.149C12.776 109.421 3.49 100.092 1.5 88.271Zm-.359-6.283 29.652 29.788a27.956 27.956 0 0 0 5.147-.758l-34.045-34.2a28.396 28.396 0 0 0-.754 5.17Zm2.23-9.617 36.994 37.164a28.06 28.06 0 0 0 3.87-2.04L5.403 68.482a28.26 28.26 0 0 0-2.03 3.888Zm4.539-7.298c5.165-6.03 12.818-9.847 21.357-9.847 15.556 0 28.167 12.668 28.167 28.295 0 8.58-3.8 16.267-9.803 21.456L7.912 65.072Zm77.137 35.843h21.342v-5.829H92.097V67.48h-7.05v33.435Zm25.881.001h6.935V75.839h-6.935v25.077Zm3.484-28.31c2.067 0 3.761-1.583 3.761-3.526 0-1.926-1.694-3.51-3.761-3.51-2.051 0-3.744 1.584-3.744 3.51 0 1.943 1.693 3.527 3.744 3.527Zm15.937 13.811c.016-3.232 1.937-5.126 4.737-5.126 2.784 0 4.461 1.829 4.444 4.898v14.726h6.935V84.948c0-5.845-3.418-9.436-8.628-9.436-3.711 0-6.397 1.828-7.521 4.75h-.293v-4.424h-6.609v25.077h6.935V86.417Zm32.977 14.987c6.187 0 10.354-3.02 11.331-7.673l-6.414-.424c-.7 1.91-2.491 2.906-4.803 2.906-3.467 0-5.665-2.302-5.665-6.04v-.017h17.028v-1.91c0-8.522-5.144-12.734-11.753-12.734-7.358 0-12.128 5.24-12.128 12.979 0 7.95 4.704 12.913 12.404 12.913Zm-5.551-15.558c.147-2.857 2.312-5.143 5.389-5.143 3.011 0 5.095 2.155 5.111 5.143h-10.5Zm28.684 15.542c3.695 0 6.088-1.616 7.309-3.95h.195v3.477h6.577V84.001c0-5.975-5.047-8.49-10.614-8.49-5.991 0-9.93 2.874-10.891 7.446l6.414.522c.473-1.665 1.954-2.89 4.445-2.89 2.36 0 3.711 1.192 3.711 3.249v.098c0 1.616-1.709 1.828-6.056 2.253-4.948.457-9.393 2.122-9.393 7.722 0 4.963 3.533 7.477 8.303 7.477Zm1.986-4.8c-2.133 0-3.663-.995-3.663-2.906 0-1.959 1.612-2.922 4.054-3.265 1.513-.212 3.988-.571 4.818-1.126v2.661c0 2.628-2.165 4.636-5.209 4.636Zm17.477 4.328h6.935V86.729c0-3.086 2.246-5.208 5.307-5.208.96 0 2.279.163 2.93.375v-6.17a10.382 10.382 0 0 0-2.181-.245c-2.801 0-5.096 1.632-6.007 4.734h-.261v-4.376h-6.723v25.077Z" fill="#FFF"/></svg>